G04 Layer: BottomPasteMaskLayer*
G04 EasyEDA v6.3.39, 2020-04-29T00:00:54+01:00*
G04 38e1d9d995c248c0af5722392e401878,0b17d191cf8f41b9921c3230ced7432e,10*
G04 Gerber Generator version 0.2*
G04 Scale: 100 percent, Rotated: No, Reflected: No *
G04 Dimensions in millimeters *
G04 leading zeros omitted , absolute positions ,3 integer and 3 decimal *
%FSLAX33Y33*%
%MOMM*%
G90*
G71D02*

%ADD29C,0.599999*%

%LPD*%
G54D29*
G01X37452Y45889D02*
G01X37452Y46809D01*
G01X38722Y45889D02*
G01X38722Y46809D01*
G01X39992Y45889D02*
G01X39992Y46809D01*
G01X41262Y45889D02*
G01X41262Y46809D01*
G01X37452Y40409D02*
G01X37452Y41329D01*
G01X38722Y40409D02*
G01X38722Y41329D01*
G01X39992Y40409D02*
G01X39992Y41329D01*
G01X41262Y40409D02*
G01X41262Y41329D01*
G36*
G01X23690Y22188D02*
G01X22690Y22188D01*
G01X22690Y21088D01*
G01X23690Y21088D01*
G01X23690Y22188D01*
G37*
G36*
G01X25290Y22188D02*
G01X24290Y22188D01*
G01X24290Y21088D01*
G01X25290Y21088D01*
G01X25290Y22188D01*
G37*
G36*
G01X5183Y8272D02*
G01X5183Y7572D01*
G01X6433Y7572D01*
G01X6433Y8272D01*
G01X5183Y8272D01*
G37*
G36*
G01X2684Y9222D02*
G01X2684Y8522D01*
G01X3934Y8522D01*
G01X3934Y9222D01*
G01X2684Y9222D01*
G37*
G36*
G01X2684Y7322D02*
G01X2684Y6622D01*
G01X3934Y6622D01*
G01X3934Y7322D01*
G01X2684Y7322D01*
G37*
G36*
G01X7688Y28665D02*
G01X6688Y28665D01*
G01X6688Y27565D01*
G01X7688Y27565D01*
G01X7688Y28665D01*
G37*
G36*
G01X9288Y28665D02*
G01X8288Y28665D01*
G01X8288Y27565D01*
G01X9288Y27565D01*
G01X9288Y28665D01*
G37*
G36*
G01X29536Y15877D02*
G01X29536Y14877D01*
G01X30636Y14877D01*
G01X30636Y15877D01*
G01X29536Y15877D01*
G37*
G36*
G01X29536Y17477D02*
G01X29536Y16477D01*
G01X30636Y16477D01*
G01X30636Y17477D01*
G01X29536Y17477D01*
G37*
G36*
G01X46007Y10925D02*
G01X47007Y10925D01*
G01X47007Y12025D01*
G01X46007Y12025D01*
G01X46007Y10925D01*
G37*
G36*
G01X44407Y10925D02*
G01X45407Y10925D01*
G01X45407Y12025D01*
G01X44407Y12025D01*
G01X44407Y10925D01*
G37*
G36*
G01X8327Y11432D02*
G01X8327Y10432D01*
G01X9427Y10432D01*
G01X9427Y11432D01*
G01X8327Y11432D01*
G37*
G36*
G01X8327Y13032D02*
G01X8327Y12032D01*
G01X9427Y12032D01*
G01X9427Y13032D01*
G01X8327Y13032D01*
G37*
G36*
G01X36644Y32602D02*
G01X35644Y32602D01*
G01X35644Y31502D01*
G01X36644Y31502D01*
G01X36644Y32602D01*
G37*
G36*
G01X38244Y32602D02*
G01X37244Y32602D01*
G01X37244Y31502D01*
G01X38244Y31502D01*
G01X38244Y32602D01*
G37*
G36*
G01X36644Y34634D02*
G01X35644Y34634D01*
G01X35644Y33534D01*
G01X36644Y33534D01*
G01X36644Y34634D01*
G37*
G36*
G01X38244Y34634D02*
G01X37244Y34634D01*
G01X37244Y33534D01*
G01X38244Y33534D01*
G01X38244Y34634D01*
G37*
G36*
G01X46007Y3559D02*
G01X47007Y3559D01*
G01X47007Y4659D01*
G01X46007Y4659D01*
G01X46007Y3559D01*
G37*
G36*
G01X44407Y3559D02*
G01X45407Y3559D01*
G01X45407Y4659D01*
G01X44407Y4659D01*
G01X44407Y3559D01*
G37*
G36*
G01X13338Y18797D02*
G01X12138Y18797D01*
G01X12138Y16097D01*
G01X13338Y16097D01*
G01X13338Y18797D01*
G37*
G36*
G01X16538Y18797D02*
G01X15338Y18797D01*
G01X15338Y16097D01*
G01X16538Y16097D01*
G01X16538Y18797D01*
G37*
G36*
G01X26818Y6664D02*
G01X28118Y6664D01*
G01X28118Y8164D01*
G01X26818Y8164D01*
G01X26818Y6664D01*
G37*
G36*
G01X23418Y6664D02*
G01X24718Y6664D01*
G01X24718Y8164D01*
G01X23418Y8164D01*
G01X23418Y6664D01*
G37*
G36*
G01X23313Y15877D02*
G01X23313Y14877D01*
G01X24413Y14877D01*
G01X24413Y15877D01*
G01X23313Y15877D01*
G37*
G36*
G01X23313Y17477D02*
G01X23313Y16477D01*
G01X24413Y16477D01*
G01X24413Y17477D01*
G01X23313Y17477D01*
G37*
G36*
G01X54170Y2884D02*
G01X53170Y2884D01*
G01X53170Y1784D01*
G01X54170Y1784D01*
G01X54170Y2884D01*
G37*
G36*
G01X55770Y2884D02*
G01X54770Y2884D01*
G01X54770Y1784D01*
G01X55770Y1784D01*
G01X55770Y2884D01*
G37*
G36*
G01X54170Y8345D02*
G01X53170Y8345D01*
G01X53170Y7245D01*
G01X54170Y7245D01*
G01X54170Y8345D01*
G37*
G36*
G01X55770Y8345D02*
G01X54770Y8345D01*
G01X54770Y7245D01*
G01X55770Y7245D01*
G01X55770Y8345D01*
G37*
G36*
G01X54170Y13806D02*
G01X53170Y13806D01*
G01X53170Y12706D01*
G01X54170Y12706D01*
G01X54170Y13806D01*
G37*
G36*
G01X55770Y13806D02*
G01X54770Y13806D01*
G01X54770Y12706D01*
G01X55770Y12706D01*
G01X55770Y13806D01*
G37*
G36*
G01X15465Y11779D02*
G01X16665Y11779D01*
G01X16665Y14479D01*
G01X15465Y14479D01*
G01X15465Y11779D01*
G37*
G36*
G01X12265Y11779D02*
G01X13465Y11779D01*
G01X13465Y14479D01*
G01X12265Y14479D01*
G01X12265Y11779D01*
G37*
G36*
G01X6818Y33916D02*
G01X7158Y33916D01*
G01X7158Y34766D01*
G01X6818Y34766D01*
G01X6818Y33916D01*
G37*
G36*
G01X7318Y33916D02*
G01X7658Y33916D01*
G01X7658Y34766D01*
G01X7318Y34766D01*
G01X7318Y33916D01*
G37*
G36*
G01X7818Y33916D02*
G01X8158Y33916D01*
G01X8158Y34766D01*
G01X7818Y34766D01*
G01X7818Y33916D01*
G37*
G36*
G01X8318Y33916D02*
G01X8658Y33916D01*
G01X8658Y34766D01*
G01X8318Y34766D01*
G01X8318Y33916D01*
G37*
G36*
G01X9158Y34766D02*
G01X8818Y34766D01*
G01X8818Y33916D01*
G01X9158Y33916D01*
G01X9158Y34766D01*
G37*
G36*
G01X9103Y31941D02*
G01X8873Y31941D01*
G01X8873Y31141D01*
G01X9103Y31141D01*
G01X9103Y31941D01*
G37*
G36*
G01X8603Y31941D02*
G01X8373Y31941D01*
G01X8373Y31141D01*
G01X8603Y31141D01*
G01X8603Y31941D01*
G37*
G36*
G01X8103Y31941D02*
G01X7873Y31941D01*
G01X7873Y31141D01*
G01X8103Y31141D01*
G01X8103Y31941D01*
G37*
G36*
G01X7098Y33701D02*
G01X7098Y33411D01*
G01X6278Y33411D01*
G01X6278Y33121D01*
G01X7108Y33121D01*
G01X7108Y32761D01*
G01X6278Y32761D01*
G01X6278Y32471D01*
G01X7108Y32471D01*
G01X7108Y32181D01*
G01X8878Y32181D01*
G01X8878Y32471D01*
G01X9698Y32471D01*
G01X9698Y32761D01*
G01X8878Y32761D01*
G01X8878Y33121D01*
G01X9698Y33121D01*
G01X9698Y33411D01*
G01X8878Y33411D01*
G01X8878Y33701D01*
G01X7098Y33701D01*
G01X7098Y33701D01*
G37*
G36*
G01X6873Y31141D02*
G01X7103Y31141D01*
G01X7103Y31941D01*
G01X6873Y31941D01*
G01X6873Y31141D01*
G37*
G36*
G01X7373Y31141D02*
G01X7603Y31141D01*
G01X7603Y31941D01*
G01X7373Y31941D01*
G01X7373Y31141D01*
G37*
G36*
G01X7388Y39648D02*
G01X5988Y39648D01*
G01X5988Y36648D01*
G01X7388Y36648D01*
G01X7388Y39648D01*
G37*
G36*
G01X9988Y39648D02*
G01X8588Y39648D01*
G01X8588Y36648D01*
G01X9988Y36648D01*
G01X9988Y39648D01*
G37*
G36*
G01X23771Y27835D02*
G01X23771Y29232D01*
G01X23365Y29232D01*
G01X23365Y27835D01*
G01X23771Y27835D01*
G37*
G36*
G01X23121Y27835D02*
G01X23121Y29232D01*
G01X22715Y29232D01*
G01X22715Y27835D01*
G01X23121Y27835D01*
G37*
G36*
G01X22471Y27835D02*
G01X22471Y29232D01*
G01X22065Y29232D01*
G01X22065Y27835D01*
G01X22471Y27835D01*
G37*
G36*
G01X21821Y27835D02*
G01X21821Y29232D01*
G01X21415Y29232D01*
G01X21415Y27835D01*
G01X21821Y27835D01*
G37*
G36*
G01X21821Y32839D02*
G01X21821Y34236D01*
G01X21415Y34236D01*
G01X21415Y32839D01*
G01X21821Y32839D01*
G37*
G36*
G01X22471Y32839D02*
G01X22471Y34236D01*
G01X22065Y34236D01*
G01X22065Y32839D01*
G01X22471Y32839D01*
G37*
G36*
G01X23121Y32839D02*
G01X23121Y34236D01*
G01X22715Y34236D01*
G01X22715Y32839D01*
G01X23121Y32839D01*
G37*
G36*
G01X23771Y32839D02*
G01X23771Y34236D01*
G01X23365Y34236D01*
G01X23365Y32839D01*
G01X23771Y32839D01*
G37*
G36*
G01X6332Y12708D02*
G01X5332Y12708D01*
G01X5332Y12158D01*
G01X6332Y12158D01*
G01X6332Y12708D01*
G37*
G36*
G01X6332Y13658D02*
G01X5332Y13658D01*
G01X5332Y13108D01*
G01X6332Y13108D01*
G01X6332Y13658D01*
G37*
G36*
G01X6332Y14608D02*
G01X5332Y14608D01*
G01X5332Y14058D01*
G01X6332Y14058D01*
G01X6332Y14608D01*
G37*
G36*
G01X3532Y14608D02*
G01X2532Y14608D01*
G01X2532Y14058D01*
G01X3532Y14058D01*
G01X3532Y14608D01*
G37*
G36*
G01X3532Y13658D02*
G01X2532Y13658D01*
G01X2532Y13108D01*
G01X3532Y13108D01*
G01X3532Y13658D01*
G37*
G36*
G01X3532Y12708D02*
G01X2532Y12708D01*
G01X2532Y12158D01*
G01X3532Y12158D01*
G01X3532Y12708D01*
G37*
G36*
G01X8327Y15242D02*
G01X8327Y14242D01*
G01X9427Y14242D01*
G01X9427Y15242D01*
G01X8327Y15242D01*
G37*
G36*
G01X8327Y16842D02*
G01X8327Y15842D01*
G01X9427Y15842D01*
G01X9427Y16842D01*
G01X8327Y16842D01*
G37*
G36*
G01X21238Y25367D02*
G01X21238Y26367D01*
G01X20138Y26367D01*
G01X20138Y25367D01*
G01X21238Y25367D01*
G37*
G36*
G01X21238Y23767D02*
G01X21238Y24767D01*
G01X20138Y24767D01*
G01X20138Y23767D01*
G01X21238Y23767D01*
G37*
G36*
G01X24964Y24767D02*
G01X24964Y23767D01*
G01X26064Y23767D01*
G01X26064Y24767D01*
G01X24964Y24767D01*
G37*
G36*
G01X24964Y26367D02*
G01X24964Y25367D01*
G01X26064Y25367D01*
G01X26064Y26367D01*
G01X24964Y26367D01*
G37*
G36*
G01X27388Y13520D02*
G01X26688Y13520D01*
G01X26688Y12270D01*
G01X27388Y12270D01*
G01X27388Y13520D01*
G37*
G36*
G01X28338Y16019D02*
G01X27638Y16019D01*
G01X27638Y14769D01*
G01X28338Y14769D01*
G01X28338Y16019D01*
G37*
G36*
G01X26438Y16019D02*
G01X25738Y16019D01*
G01X25738Y14769D01*
G01X26438Y14769D01*
G01X26438Y16019D01*
G37*
G36*
G01X12443Y2873D02*
G01X12443Y3573D01*
G01X11193Y3573D01*
G01X11193Y2873D01*
G01X12443Y2873D01*
G37*
G36*
G01X14942Y1923D02*
G01X14942Y2623D01*
G01X13692Y2623D01*
G01X13692Y1923D01*
G01X14942Y1923D01*
G37*
G36*
G01X14942Y3823D02*
G01X14942Y4523D01*
G01X13692Y4523D01*
G01X13692Y3823D01*
G01X14942Y3823D01*
G37*
G36*
G01X23655Y38233D02*
G01X24655Y38233D01*
G01X24655Y39333D01*
G01X23655Y39333D01*
G01X23655Y38233D01*
G37*
G36*
G01X22055Y38233D02*
G01X23055Y38233D01*
G01X23055Y39333D01*
G01X22055Y39333D01*
G01X22055Y38233D01*
G37*
G36*
G01X11375Y32436D02*
G01X11375Y31436D01*
G01X12475Y31436D01*
G01X12475Y32436D01*
G01X11375Y32436D01*
G37*
G36*
G01X11375Y30636D02*
G01X11375Y29636D01*
G01X12475Y29636D01*
G01X12475Y30636D01*
G01X11375Y30636D01*
G37*
G36*
G01X12475Y33446D02*
G01X12475Y34446D01*
G01X11375Y34446D01*
G01X11375Y33446D01*
G01X12475Y33446D01*
G37*
G36*
G01X12475Y35246D02*
G01X12475Y36246D01*
G01X11375Y36246D01*
G01X11375Y35246D01*
G01X12475Y35246D01*
G37*
G36*
G01X4093Y31668D02*
G01X4093Y32668D01*
G01X2993Y32668D01*
G01X2993Y31668D01*
G01X4093Y31668D01*
G37*
G36*
G01X4093Y33468D02*
G01X4093Y34468D01*
G01X2993Y34468D01*
G01X2993Y33468D01*
G01X4093Y33468D01*
G37*
G36*
G01X22551Y26467D02*
G01X22551Y25467D01*
G01X23651Y25467D01*
G01X23651Y26467D01*
G01X22551Y26467D01*
G37*
G36*
G01X22551Y24667D02*
G01X22551Y23667D01*
G01X23651Y23667D01*
G01X23651Y24667D01*
G01X22551Y24667D01*
G37*
G36*
G01X24755Y36793D02*
G01X23755Y36793D01*
G01X23755Y35693D01*
G01X24755Y35693D01*
G01X24755Y36793D01*
G37*
G36*
G01X22955Y36793D02*
G01X21955Y36793D01*
G01X21955Y35693D01*
G01X22955Y35693D01*
G01X22955Y36793D01*
G37*
G36*
G01X26953Y37432D02*
G01X26953Y38432D01*
G01X25853Y38432D01*
G01X25853Y37432D01*
G01X26953Y37432D01*
G37*
G36*
G01X26953Y35832D02*
G01X26953Y36832D01*
G01X25853Y36832D01*
G01X25853Y35832D01*
G01X26953Y35832D01*
G37*
G36*
G01X19757Y36832D02*
G01X19757Y35832D01*
G01X20857Y35832D01*
G01X20857Y36832D01*
G01X19757Y36832D01*
G37*
G36*
G01X19757Y38432D02*
G01X19757Y37432D01*
G01X20857Y37432D01*
G01X20857Y38432D01*
G01X19757Y38432D01*
G37*
G36*
G01X34700Y43655D02*
G01X34700Y44655D01*
G01X33600Y44655D01*
G01X33600Y43655D01*
G01X34700Y43655D01*
G37*
G36*
G01X34700Y42055D02*
G01X34700Y43055D01*
G01X33600Y43055D01*
G01X33600Y42055D01*
G01X34700Y42055D01*
G37*
G36*
G01X44606Y43909D02*
G01X44606Y44909D01*
G01X43506Y44909D01*
G01X43506Y43909D01*
G01X44606Y43909D01*
G37*
G36*
G01X44606Y42309D02*
G01X44606Y43309D01*
G01X43506Y43309D01*
G01X43506Y42309D01*
G01X44606Y42309D01*
G37*
M00*
M02*
