G04 Layer: BottomSilkLayer*
G04 EasyEDA v6.3.39, 2020-04-29T00:00:54+01:00*
G04 38e1d9d995c248c0af5722392e401878,0b17d191cf8f41b9921c3230ced7432e,10*
G04 Gerber Generator version 0.2*
G04 Scale: 100 percent, Rotated: No, Reflected: No *
G04 Dimensions in millimeters *
G04 leading zeros omitted , absolute positions ,3 integer and 3 decimal *
%FSLAX33Y33*%
%MOMM*%
G90*
G71D02*

%ADD10C,0.254000*%
%ADD43C,0.152400*%
%ADD44C,0.200000*%
%ADD45C,0.150012*%

%LPD*%
G54D10*
G01X25540Y22438D02*
G01X25540Y20838D01*
G01X23689Y20843D02*
G01X22439Y20843D01*
G01X23689Y22443D02*
G01X22439Y22443D01*
G01X24290Y20838D02*
G01X25540Y20838D01*
G01X24290Y22438D02*
G01X25540Y22438D01*
G01X22439Y22443D02*
G01X22439Y20843D01*
G01X5209Y8722D02*
G01X5209Y9382D01*
G01X5209Y8722D01*
G01X5209Y9382D01*
G01X4394Y9382D01*
G01X4394Y6462D02*
G01X5209Y6462D01*
G01X5209Y7122D01*
G54D44*
G01X3659Y7622D02*
G01X3659Y8222D01*
G54D10*
G01X9538Y28915D02*
G01X9538Y27315D01*
G01X7687Y27320D02*
G01X6437Y27320D01*
G01X7687Y28920D02*
G01X6437Y28920D01*
G01X8288Y27315D02*
G01X9538Y27315D01*
G01X8288Y28915D02*
G01X9538Y28915D01*
G01X6437Y28920D02*
G01X6437Y27320D01*
G01X29286Y17727D02*
G01X30886Y17727D01*
G01X30881Y15876D02*
G01X30881Y14626D01*
G01X29281Y15876D02*
G01X29281Y14626D01*
G01X30886Y16477D02*
G01X30886Y17727D01*
G01X29286Y16477D02*
G01X29286Y17727D01*
G01X29281Y14626D02*
G01X30881Y14626D01*
G01X44157Y10675D02*
G01X44157Y12275D01*
G01X46008Y12270D02*
G01X47258Y12270D01*
G01X46008Y10670D02*
G01X47258Y10670D01*
G01X45407Y12275D02*
G01X44157Y12275D01*
G01X45407Y10675D02*
G01X44157Y10675D01*
G01X47258Y10670D02*
G01X47258Y12270D01*
G01X8077Y13282D02*
G01X9677Y13282D01*
G01X9672Y11431D02*
G01X9672Y10181D01*
G01X8072Y11431D02*
G01X8072Y10181D01*
G01X9677Y12032D02*
G01X9677Y13282D01*
G01X8077Y12032D02*
G01X8077Y13282D01*
G01X8072Y10181D02*
G01X9672Y10181D01*
G01X38494Y32852D02*
G01X38494Y31252D01*
G01X36643Y31257D02*
G01X35393Y31257D01*
G01X36643Y32857D02*
G01X35393Y32857D01*
G01X37244Y31252D02*
G01X38494Y31252D01*
G01X37244Y32852D02*
G01X38494Y32852D01*
G01X35393Y32857D02*
G01X35393Y31257D01*
G01X38494Y34884D02*
G01X38494Y33284D01*
G01X36643Y33289D02*
G01X35393Y33289D01*
G01X36643Y34889D02*
G01X35393Y34889D01*
G01X37244Y33284D02*
G01X38494Y33284D01*
G01X37244Y34884D02*
G01X38494Y34884D01*
G01X35393Y34889D02*
G01X35393Y33289D01*
G01X44157Y3309D02*
G01X44157Y4909D01*
G01X46008Y4904D02*
G01X47258Y4904D01*
G01X46008Y3304D02*
G01X47258Y3304D01*
G01X45407Y4909D02*
G01X44157Y4909D01*
G01X45407Y3309D02*
G01X44157Y3309D01*
G01X47258Y3304D02*
G01X47258Y4904D01*
G01X16838Y18797D02*
G01X16838Y16097D01*
G01X13438Y15847D02*
G01X12138Y15847D01*
G01X13438Y19047D02*
G01X12138Y19047D01*
G01X15238Y15847D02*
G01X16538Y15847D01*
G01X15238Y19047D02*
G01X16538Y19047D01*
G01X11838Y18797D02*
G01X11838Y16097D01*
G01X25590Y7414D02*
G01X26174Y7007D01*
G01X26174Y7007D02*
G01X26174Y7820D01*
G01X26174Y7820D02*
G01X25590Y7414D01*
G01X24268Y6414D02*
G01X27268Y6414D01*
G01X27268Y8414D02*
G01X24268Y8414D01*
G01X25361Y6906D02*
G01X25361Y7922D01*
G01X23063Y17727D02*
G01X24663Y17727D01*
G01X24658Y15876D02*
G01X24658Y14626D01*
G01X23058Y15876D02*
G01X23058Y14626D01*
G01X24663Y16477D02*
G01X24663Y17727D01*
G01X23063Y16477D02*
G01X23063Y17727D01*
G01X23058Y14626D02*
G01X24658Y14626D01*
G01X56020Y3134D02*
G01X56020Y1534D01*
G01X54169Y1539D02*
G01X52919Y1539D01*
G01X54169Y3139D02*
G01X52919Y3139D01*
G01X54770Y1534D02*
G01X56020Y1534D01*
G01X54770Y3134D02*
G01X56020Y3134D01*
G01X52919Y3139D02*
G01X52919Y1539D01*
G01X56020Y8595D02*
G01X56020Y6995D01*
G01X54169Y7000D02*
G01X52919Y7000D01*
G01X54169Y8600D02*
G01X52919Y8600D01*
G01X54770Y6995D02*
G01X56020Y6995D01*
G01X54770Y8595D02*
G01X56020Y8595D01*
G01X52919Y8600D02*
G01X52919Y7000D01*
G01X56020Y14056D02*
G01X56020Y12456D01*
G01X54169Y12461D02*
G01X52919Y12461D01*
G01X54169Y14061D02*
G01X52919Y14061D01*
G01X54770Y12456D02*
G01X56020Y12456D01*
G01X54770Y14056D02*
G01X56020Y14056D01*
G01X52919Y14061D02*
G01X52919Y12461D01*
G01X11965Y11529D02*
G01X11965Y14729D01*
G01X15365Y14729D02*
G01X16965Y14729D01*
G01X15365Y11529D02*
G01X16965Y11529D01*
G01X13565Y14729D02*
G01X11965Y14729D01*
G01X13565Y11529D02*
G01X11965Y11529D01*
G01X16965Y11529D02*
G01X16965Y14729D01*
G54D45*
G01X6488Y31441D02*
G01X6694Y31441D01*
G01X9282Y31441D02*
G01X9488Y31441D01*
G01X6488Y34441D02*
G01X6639Y34441D01*
G01X9337Y34441D02*
G01X9488Y34441D01*
G01X6488Y34441D02*
G01X6488Y33590D01*
G01X6488Y32942D02*
G01X6488Y32940D01*
G01X6488Y32292D02*
G01X6488Y31417D01*
G01X9488Y31441D02*
G01X9488Y32292D01*
G01X9488Y32940D02*
G01X9488Y32942D01*
G01X9488Y33590D02*
G01X9488Y34441D01*
G54D44*
G01X9588Y39858D02*
G01X6388Y39858D01*
G01X9588Y36438D02*
G01X6388Y36438D01*
G54D10*
G01X24071Y29524D02*
G01X24071Y30388D01*
G01X24071Y32547D02*
G01X21071Y32547D01*
G01X21074Y29524D02*
G01X21074Y32524D01*
G01X24074Y29524D02*
G01X21074Y29524D01*
G01X24071Y31683D02*
G01X24071Y32547D01*
G01X3532Y14933D02*
G01X5332Y14933D01*
G01X3532Y11833D02*
G01X5332Y11833D01*
G01X41857Y41609D02*
G01X41713Y41609D01*
G01X40811Y41609D02*
G01X40443Y41609D01*
G01X41857Y45609D02*
G01X41713Y45609D01*
G01X40811Y45609D02*
G01X40443Y45609D01*
G01X39541Y45609D02*
G01X39173Y45609D01*
G01X38271Y45609D02*
G01X37903Y45609D01*
G01X41857Y43029D02*
G01X41857Y41609D01*
G01X39541Y41609D02*
G01X39173Y41609D01*
G01X38271Y41609D02*
G01X37903Y41609D01*
G01X37001Y41609D02*
G01X36857Y41609D01*
G01X41857Y45609D02*
G01X41857Y44209D01*
G01X36857Y45609D02*
G01X36857Y41609D01*
G01X37001Y45609D02*
G01X36857Y45609D01*
G01X8077Y17092D02*
G01X9677Y17092D01*
G01X9672Y15241D02*
G01X9672Y13991D01*
G01X8072Y15241D02*
G01X8072Y13991D01*
G01X9677Y15842D02*
G01X9677Y17092D01*
G01X8077Y15842D02*
G01X8077Y17092D01*
G01X8072Y13991D02*
G01X9672Y13991D01*
G01X21488Y23517D02*
G01X19888Y23517D01*
G01X19893Y25367D02*
G01X19893Y26617D01*
G01X21493Y25367D02*
G01X21493Y26617D01*
G01X19888Y24767D02*
G01X19888Y23517D01*
G01X21488Y24767D02*
G01X21488Y23517D01*
G01X21493Y26617D02*
G01X19893Y26617D01*
G01X24714Y26617D02*
G01X26314Y26617D01*
G01X26309Y24766D02*
G01X26309Y23516D01*
G01X24709Y24766D02*
G01X24709Y23516D01*
G01X26314Y25367D02*
G01X26314Y26617D01*
G01X24714Y25367D02*
G01X24714Y26617D01*
G01X24709Y23516D02*
G01X26309Y23516D01*
G01X27838Y13495D02*
G01X28498Y13495D01*
G01X27838Y13495D01*
G01X28498Y13495D01*
G01X28498Y14310D01*
G01X25578Y14310D02*
G01X25578Y13495D01*
G01X26238Y13495D01*
G54D44*
G01X26738Y15045D02*
G01X27338Y15045D01*
G54D10*
G01X13233Y4683D02*
G01X12418Y4683D01*
G01X12418Y4023D01*
G01X12418Y2423D02*
G01X12418Y1763D01*
G01X12418Y2423D01*
G01X12418Y1763D01*
G01X13233Y1763D01*
G54D44*
G01X13968Y3523D02*
G01X13968Y2923D01*
G54D10*
G01X21805Y37983D02*
G01X21805Y39583D01*
G01X23655Y39578D02*
G01X24905Y39578D01*
G01X23655Y37978D02*
G01X24905Y37978D01*
G01X23055Y39583D02*
G01X21805Y39583D01*
G01X23055Y37983D02*
G01X21805Y37983D01*
G01X24905Y37978D02*
G01X24905Y39578D01*
G01X11325Y29386D02*
G01X12525Y29386D01*
G01X11125Y31436D02*
G01X11125Y32436D01*
G01X12725Y31436D02*
G01X12725Y32436D01*
G01X11125Y30636D02*
G01X11125Y29636D01*
G01X12725Y30636D02*
G01X12725Y29636D01*
G01X11325Y32686D02*
G01X12525Y32686D01*
G01X11125Y32486D02*
G01X11125Y32436D01*
G01X12725Y32486D02*
G01X12725Y32436D01*
G01X11125Y29586D02*
G01X11125Y29636D01*
G01X12725Y29586D02*
G01X12725Y29636D01*
G01X12525Y36496D02*
G01X11325Y36496D01*
G01X12725Y34446D02*
G01X12725Y33446D01*
G01X11125Y34446D02*
G01X11125Y33446D01*
G01X12725Y35246D02*
G01X12725Y36246D01*
G01X11125Y35246D02*
G01X11125Y36246D01*
G01X12525Y33196D02*
G01X11325Y33196D01*
G01X12725Y33396D02*
G01X12725Y33446D01*
G01X11125Y33396D02*
G01X11125Y33446D01*
G01X12725Y36296D02*
G01X12725Y36246D01*
G01X11125Y36296D02*
G01X11125Y36246D01*
G01X4143Y34718D02*
G01X2943Y34718D01*
G01X4343Y32668D02*
G01X4343Y31668D01*
G01X2743Y32668D02*
G01X2743Y31668D01*
G01X4343Y33468D02*
G01X4343Y34468D01*
G01X2743Y33468D02*
G01X2743Y34468D01*
G01X4143Y31418D02*
G01X2943Y31418D01*
G01X4343Y31618D02*
G01X4343Y31668D01*
G01X2743Y31618D02*
G01X2743Y31668D01*
G01X4343Y34518D02*
G01X4343Y34468D01*
G01X2743Y34518D02*
G01X2743Y34468D01*
G01X22501Y23417D02*
G01X23701Y23417D01*
G01X22301Y25467D02*
G01X22301Y26467D01*
G01X23901Y25467D02*
G01X23901Y26467D01*
G01X22301Y24667D02*
G01X22301Y23667D01*
G01X23901Y24667D02*
G01X23901Y23667D01*
G01X22501Y26717D02*
G01X23701Y26717D01*
G01X22301Y26517D02*
G01X22301Y26467D01*
G01X23901Y26517D02*
G01X23901Y26467D01*
G01X22301Y23617D02*
G01X22301Y23667D01*
G01X23901Y23617D02*
G01X23901Y23667D01*
G01X21705Y36843D02*
G01X21705Y35643D01*
G01X23755Y37043D02*
G01X24755Y37043D01*
G01X23755Y35443D02*
G01X24755Y35443D01*
G01X22955Y37043D02*
G01X21955Y37043D01*
G01X22955Y35443D02*
G01X21955Y35443D01*
G01X25005Y36843D02*
G01X25005Y35643D01*
G01X24805Y37043D02*
G01X24755Y37043D01*
G01X24805Y35443D02*
G01X24755Y35443D01*
G01X21905Y37043D02*
G01X21955Y37043D01*
G01X21905Y35443D02*
G01X21955Y35443D01*
G01X27203Y35582D02*
G01X25603Y35582D01*
G01X25608Y37432D02*
G01X25608Y38682D01*
G01X27208Y37432D02*
G01X27208Y38682D01*
G01X25603Y36832D02*
G01X25603Y35582D01*
G01X27203Y36832D02*
G01X27203Y35582D01*
G01X27208Y38682D02*
G01X25608Y38682D01*
G01X19507Y38682D02*
G01X21107Y38682D01*
G01X21102Y36831D02*
G01X21102Y35581D01*
G01X19502Y36831D02*
G01X19502Y35581D01*
G01X21107Y37432D02*
G01X21107Y38682D01*
G01X19507Y37432D02*
G01X19507Y38682D01*
G01X19502Y35581D02*
G01X21102Y35581D01*
G01X34950Y41805D02*
G01X33350Y41805D01*
G01X33355Y43655D02*
G01X33355Y44905D01*
G01X34955Y43655D02*
G01X34955Y44905D01*
G01X33350Y43055D02*
G01X33350Y41805D01*
G01X34950Y43055D02*
G01X34950Y41805D01*
G01X34955Y44905D02*
G01X33355Y44905D01*
G01X44856Y42059D02*
G01X43256Y42059D01*
G01X43261Y43909D02*
G01X43261Y45159D01*
G01X44861Y43909D02*
G01X44861Y45159D01*
G01X43256Y43309D02*
G01X43256Y42059D01*
G01X44856Y43309D02*
G01X44856Y42059D01*
G01X44861Y45159D02*
G01X43261Y45159D01*

%LPD*%
G36*
G01X44335Y38729D02*
G01X44317Y38732D01*
G01X44301Y38729D01*
G01X44287Y38721D01*
G01X44278Y38709D01*
G01X44274Y38691D01*
G01X44278Y38673D01*
G01X44287Y38659D01*
G01X44301Y38651D01*
G01X44317Y38648D01*
G01X44335Y38651D01*
G01X44348Y38659D01*
G01X44358Y38673D01*
G01X44361Y38691D01*
G01X44358Y38709D01*
G01X44348Y38721D01*
G01X44335Y38729D01*
G37*

%LPD*%
G36*
G01X44350Y38559D02*
G01X44287Y38559D01*
G01X44287Y38148D01*
G01X44350Y38148D01*
G01X44350Y38559D01*
G37*

%LPD*%
G36*
G01X44462Y38569D02*
G01X44450Y38569D01*
G01X44430Y38565D01*
G01X44419Y38562D01*
G01X44432Y38506D01*
G01X44441Y38509D01*
G01X44459Y38513D01*
G01X44470Y38514D01*
G01X44498Y38508D01*
G01X44526Y38492D01*
G01X44553Y38462D01*
G01X44577Y38417D01*
G01X44577Y38148D01*
G01X44637Y38148D01*
G01X44637Y38559D01*
G01X44587Y38559D01*
G01X44582Y38483D01*
G01X44579Y38483D01*
G01X44556Y38519D01*
G01X44527Y38546D01*
G01X44496Y38563D01*
G01X44462Y38569D01*
G37*

%LPD*%
G36*
G01X42382Y38676D02*
G01X42329Y38676D01*
G01X42329Y38559D01*
G01X42217Y38559D01*
G01X42217Y38508D01*
G01X42329Y38508D01*
G01X42329Y38270D01*
G01X42326Y38236D01*
G01X42315Y38210D01*
G01X42296Y38194D01*
G01X42265Y38188D01*
G01X42253Y38189D01*
G01X42240Y38192D01*
G01X42228Y38196D01*
G01X42217Y38201D01*
G01X42204Y38153D01*
G01X42222Y38147D01*
G01X42241Y38142D01*
G01X42260Y38139D01*
G01X42278Y38138D01*
G01X42332Y38147D01*
G01X42367Y38174D01*
G01X42387Y38217D01*
G01X42392Y38272D01*
G01X42392Y38508D01*
G01X42453Y38508D01*
G01X42453Y38557D01*
G01X42390Y38559D01*
G01X42382Y38676D01*
G37*

%LPD*%
G36*
G01X42608Y38559D02*
G01X42547Y38559D01*
G01X42547Y38148D01*
G01X42598Y38148D01*
G01X42603Y38214D01*
G01X42605Y38214D01*
G01X42635Y38183D01*
G01X42666Y38158D01*
G01X42702Y38143D01*
G01X42743Y38138D01*
G01X42799Y38148D01*
G01X42837Y38179D01*
G01X42860Y38229D01*
G01X42867Y38298D01*
G01X42867Y38559D01*
G01X42806Y38559D01*
G01X42806Y38305D01*
G01X42801Y38254D01*
G01X42786Y38218D01*
G01X42761Y38198D01*
G01X42725Y38191D01*
G01X42694Y38196D01*
G01X42665Y38209D01*
G01X42637Y38232D01*
G01X42608Y38265D01*
G01X42608Y38559D01*
G37*

%LPD*%
G36*
G01X43170Y38712D02*
G01X43119Y38717D01*
G01X43070Y38711D01*
G01X43029Y38696D01*
G01X42994Y38674D01*
G01X42966Y38648D01*
G01X43002Y38608D01*
G01X43026Y38629D01*
G01X43054Y38646D01*
G01X43084Y38657D01*
G01X43119Y38661D01*
G01X43193Y38645D01*
G01X43250Y38598D01*
G01X43286Y38525D01*
G01X43299Y38427D01*
G01X43287Y38331D01*
G01X43251Y38257D01*
G01X43195Y38210D01*
G01X43121Y38193D01*
G01X43082Y38198D01*
G01X43047Y38210D01*
G01X43017Y38230D01*
G01X42989Y38257D01*
G01X42953Y38219D01*
G01X42988Y38184D01*
G01X43027Y38158D01*
G01X43072Y38143D01*
G01X43124Y38138D01*
G01X43173Y38143D01*
G01X43219Y38157D01*
G01X43259Y38182D01*
G01X43294Y38215D01*
G01X43323Y38256D01*
G01X43345Y38306D01*
G01X43358Y38363D01*
G01X43362Y38427D01*
G01X43358Y38491D01*
G01X43344Y38548D01*
G01X43323Y38597D01*
G01X43294Y38638D01*
G01X43258Y38672D01*
G01X43217Y38696D01*
G01X43170Y38712D01*
G37*

%LPD*%
G36*
G01X43718Y38755D02*
G01X43657Y38755D01*
G01X43657Y38219D01*
G01X43655Y38206D01*
G01X43651Y38196D01*
G01X43645Y38190D01*
G01X43637Y38188D01*
G01X43635Y38188D01*
G01X43632Y38189D01*
G01X43629Y38189D01*
G01X43624Y38191D01*
G01X43614Y38143D01*
G01X43621Y38141D01*
G01X43630Y38139D01*
G01X43640Y38138D01*
G01X43652Y38138D01*
G01X43681Y38143D01*
G01X43702Y38160D01*
G01X43714Y38187D01*
G01X43718Y38224D01*
G01X43718Y38755D01*
G37*

%LPD*%
G36*
G01X44041Y38564D02*
G01X43992Y38569D01*
G01X43929Y38557D01*
G01X43887Y38523D01*
G01X43863Y38471D01*
G01X43855Y38404D01*
G01X43855Y38148D01*
G01X43906Y38148D01*
G01X43911Y38199D01*
G01X43914Y38199D01*
G01X43944Y38175D01*
G01X43978Y38156D01*
G01X44013Y38143D01*
G01X44051Y38138D01*
G01X44098Y38145D01*
G01X44136Y38168D01*
G01X44161Y38204D01*
G01X44170Y38254D01*
G01X44155Y38313D01*
G01X44109Y38357D01*
G01X44030Y38388D01*
G01X43916Y38407D01*
G01X43920Y38448D01*
G01X43932Y38484D01*
G01X43959Y38509D01*
G01X44002Y38519D01*
G01X44039Y38515D01*
G01X44073Y38503D01*
G01X44103Y38489D01*
G01X44129Y38473D01*
G01X44152Y38516D01*
G01X44122Y38534D01*
G01X44085Y38551D01*
G01X44041Y38564D01*
G37*

%LPC*%
G36*
G01X44008Y38349D02*
G01X43916Y38366D01*
G01X43916Y38244D01*
G01X43946Y38220D01*
G01X43975Y38203D01*
G01X44004Y38192D01*
G01X44035Y38188D01*
G01X44064Y38192D01*
G01X44089Y38205D01*
G01X44106Y38226D01*
G01X44112Y38257D01*
G01X44102Y38295D01*
G01X44068Y38326D01*
G01X44008Y38349D01*
G37*

%LPD*%
G36*
G01X44973Y38555D02*
G01X44904Y38569D01*
G01X44836Y38556D01*
G01X44785Y38518D01*
G01X44753Y38457D01*
G01X44742Y38376D01*
G01X44742Y38367D01*
G01X44743Y38358D01*
G01X44745Y38349D01*
G01X44747Y38341D01*
G01X45026Y38341D01*
G01X45014Y38278D01*
G01X44986Y38230D01*
G01X44942Y38200D01*
G01X44886Y38188D01*
G01X44857Y38191D01*
G01X44831Y38197D01*
G01X44806Y38208D01*
G01X44782Y38221D01*
G01X44759Y38181D01*
G01X44787Y38165D01*
G01X44818Y38151D01*
G01X44853Y38141D01*
G01X44894Y38138D01*
G01X44970Y38152D01*
G01X45032Y38195D01*
G01X45074Y38263D01*
G01X45090Y38354D01*
G01X45074Y38444D01*
G01X45032Y38512D01*
G01X44973Y38555D01*
G37*

%LPC*%
G36*
G01X44948Y38510D02*
G01X44904Y38519D01*
G01X44858Y38510D01*
G01X44825Y38485D01*
G01X44805Y38443D01*
G01X44797Y38387D01*
G01X45026Y38387D01*
G01X45012Y38442D01*
G01X44985Y38484D01*
G01X44948Y38510D01*
G37*

%LPD*%
G36*
G01X45412Y38706D02*
G01X45344Y38717D01*
G01X45296Y38711D01*
G01X45252Y38697D01*
G01X45213Y38675D01*
G01X45181Y38648D01*
G01X45214Y38608D01*
G01X45242Y38629D01*
G01X45272Y38646D01*
G01X45306Y38657D01*
G01X45344Y38661D01*
G01X45387Y38655D01*
G01X45422Y38637D01*
G01X45445Y38611D01*
G01X45453Y38574D01*
G01X45444Y38537D01*
G01X45422Y38511D01*
G01X45392Y38492D01*
G01X45359Y38478D01*
G01X45278Y38442D01*
G01X45233Y38419D01*
G01X45197Y38389D01*
G01X45172Y38348D01*
G01X45163Y38295D01*
G01X45176Y38233D01*
G01X45213Y38183D01*
G01X45271Y38150D01*
G01X45349Y38138D01*
G01X45407Y38144D01*
G01X45459Y38160D01*
G01X45505Y38187D01*
G01X45544Y38221D01*
G01X45506Y38265D01*
G01X45473Y38235D01*
G01X45434Y38213D01*
G01X45392Y38199D01*
G01X45349Y38193D01*
G01X45297Y38201D01*
G01X45259Y38220D01*
G01X45235Y38250D01*
G01X45227Y38290D01*
G01X45234Y38329D01*
G01X45254Y38355D01*
G01X45284Y38375D01*
G01X45321Y38392D01*
G01X45402Y38427D01*
G01X45442Y38447D01*
G01X45479Y38476D01*
G01X45506Y38516D01*
G01X45516Y38569D01*
G01X45503Y38628D01*
G01X45467Y38675D01*
G01X45412Y38706D01*
G37*

%LPD*%
G54D43*
G01X24879Y20378D02*
G01X24879Y19288D01*
G01X24879Y20378D02*
G01X24411Y20378D01*
G01X24256Y20327D01*
G01X24203Y20274D01*
G01X24152Y20170D01*
G01X24152Y20066D01*
G01X24203Y19961D01*
G01X24256Y19911D01*
G01X24411Y19860D01*
G01X24879Y19860D01*
G01X24515Y19860D02*
G01X24152Y19288D01*
G01X23080Y20378D02*
G01X23601Y19288D01*
G01X23809Y20378D02*
G01X23080Y20378D01*
G01X993Y8498D02*
G01X1043Y8602D01*
G01X1148Y8707D01*
G01X1252Y8760D01*
G01X1409Y8811D01*
G01X1668Y8811D01*
G01X1823Y8760D01*
G01X1927Y8707D01*
G01X2032Y8602D01*
G01X2082Y8498D01*
G01X2082Y8290D01*
G01X2032Y8188D01*
G01X1927Y8084D01*
G01X1823Y8031D01*
G01X1668Y7980D01*
G01X1409Y7980D01*
G01X1252Y8031D01*
G01X1148Y8084D01*
G01X1043Y8188D01*
G01X993Y8290D01*
G01X993Y8498D01*
G01X1877Y8343D02*
G01X2186Y8031D01*
G01X1201Y7637D02*
G01X1148Y7533D01*
G01X993Y7376D01*
G01X2082Y7376D01*
G01X9130Y26601D02*
G01X9130Y25511D01*
G01X9130Y26601D02*
G01X8663Y26601D01*
G01X8508Y26550D01*
G01X8455Y26497D01*
G01X8404Y26393D01*
G01X8404Y26289D01*
G01X8455Y26184D01*
G01X8508Y26134D01*
G01X8663Y26083D01*
G01X9130Y26083D01*
G01X8767Y26083D02*
G01X8404Y25511D01*
G01X8061Y26393D02*
G01X7957Y26446D01*
G01X7799Y26601D01*
G01X7799Y25511D01*
G01X6730Y26601D02*
G01X7251Y25511D01*
G01X7457Y26601D02*
G01X6730Y26601D01*
G01X32562Y15387D02*
G01X31473Y15387D01*
G01X32562Y15387D02*
G01X32562Y15854D01*
G01X32512Y16009D01*
G01X32458Y16063D01*
G01X32354Y16113D01*
G01X32250Y16113D01*
G01X32146Y16063D01*
G01X32095Y16009D01*
G01X32044Y15854D01*
G01X32044Y15387D01*
G01X32044Y15750D02*
G01X31473Y16113D01*
G01X32354Y16456D02*
G01X32407Y16560D01*
G01X32562Y16718D01*
G01X31473Y16718D01*
G01X32354Y17061D02*
G01X32407Y17165D01*
G01X32562Y17320D01*
G01X31473Y17320D01*
G01X46977Y13901D02*
G01X46977Y12811D01*
G01X46977Y13901D02*
G01X46509Y13901D01*
G01X46354Y13850D01*
G01X46301Y13797D01*
G01X46250Y13693D01*
G01X46250Y13589D01*
G01X46301Y13484D01*
G01X46354Y13434D01*
G01X46509Y13383D01*
G01X46977Y13383D01*
G01X46613Y13383D02*
G01X46250Y12811D01*
G01X45907Y13693D02*
G01X45803Y13746D01*
G01X45646Y13901D01*
G01X45646Y12811D01*
G01X44680Y13901D02*
G01X45199Y13901D01*
G01X45252Y13434D01*
G01X45199Y13484D01*
G01X45044Y13538D01*
G01X44889Y13538D01*
G01X44731Y13484D01*
G01X44627Y13383D01*
G01X44576Y13225D01*
G01X44576Y13121D01*
G01X44627Y12966D01*
G01X44731Y12862D01*
G01X44889Y12811D01*
G01X45044Y12811D01*
G01X45199Y12862D01*
G01X45252Y12913D01*
G01X45303Y13017D01*
G01X10137Y12621D02*
G01X11226Y12621D01*
G01X10137Y12621D02*
G01X10137Y12153D01*
G01X10187Y11998D01*
G01X10241Y11945D01*
G01X10345Y11894D01*
G01X10449Y11894D01*
G01X10553Y11945D01*
G01X10604Y11998D01*
G01X10655Y12153D01*
G01X10655Y12621D01*
G01X10655Y12257D02*
G01X11226Y11894D01*
G01X10292Y10926D02*
G01X10187Y10980D01*
G01X10137Y11135D01*
G01X10137Y11239D01*
G01X10187Y11394D01*
G01X10345Y11498D01*
G01X10604Y11551D01*
G01X10863Y11551D01*
G01X11071Y11498D01*
G01X11176Y11394D01*
G01X11226Y11239D01*
G01X11226Y11186D01*
G01X11176Y11031D01*
G01X11071Y10926D01*
G01X10916Y10876D01*
G01X10863Y10876D01*
G01X10708Y10926D01*
G01X10604Y11031D01*
G01X10553Y11186D01*
G01X10553Y11239D01*
G01X10604Y11394D01*
G01X10708Y11498D01*
G01X10863Y11551D01*
G01X34912Y32697D02*
G01X34912Y31607D01*
G01X34912Y32697D02*
G01X34444Y32697D01*
G01X34289Y32646D01*
G01X34236Y32593D01*
G01X34185Y32489D01*
G01X34185Y32385D01*
G01X34236Y32280D01*
G01X34289Y32230D01*
G01X34444Y32179D01*
G01X34912Y32179D01*
G01X34548Y32179D02*
G01X34185Y31607D01*
G01X33218Y32697D02*
G01X33738Y32697D01*
G01X33789Y32230D01*
G01X33738Y32280D01*
G01X33581Y32334D01*
G01X33426Y32334D01*
G01X33271Y32280D01*
G01X33167Y32179D01*
G01X33113Y32021D01*
G01X33113Y31917D01*
G01X33167Y31762D01*
G01X33271Y31658D01*
G01X33426Y31607D01*
G01X33581Y31607D01*
G01X33738Y31658D01*
G01X33789Y31709D01*
G01X33842Y31813D01*
G01X34912Y34602D02*
G01X34912Y33512D01*
G01X34912Y34602D02*
G01X34444Y34602D01*
G01X34289Y34551D01*
G01X34236Y34498D01*
G01X34185Y34394D01*
G01X34185Y34290D01*
G01X34236Y34185D01*
G01X34289Y34135D01*
G01X34444Y34084D01*
G01X34912Y34084D01*
G01X34548Y34084D02*
G01X34185Y33512D01*
G01X33322Y34602D02*
G01X33842Y33875D01*
G01X33063Y33875D01*
G01X33322Y34602D02*
G01X33322Y33512D01*
G01X46850Y6535D02*
G01X46850Y5445D01*
G01X46850Y6535D02*
G01X46382Y6535D01*
G01X46227Y6484D01*
G01X46174Y6431D01*
G01X46123Y6327D01*
G01X46123Y6223D01*
G01X46174Y6118D01*
G01X46227Y6068D01*
G01X46382Y6017D01*
G01X46850Y6017D01*
G01X46486Y6017D02*
G01X46123Y5445D01*
G01X45780Y6327D02*
G01X45676Y6380D01*
G01X45519Y6535D01*
G01X45519Y5445D01*
G01X44553Y6380D02*
G01X44604Y6484D01*
G01X44762Y6535D01*
G01X44866Y6535D01*
G01X45021Y6484D01*
G01X45125Y6327D01*
G01X45176Y6068D01*
G01X45176Y5809D01*
G01X45125Y5600D01*
G01X45021Y5496D01*
G01X44866Y5445D01*
G01X44812Y5445D01*
G01X44658Y5496D01*
G01X44553Y5600D01*
G01X44500Y5755D01*
G01X44500Y5809D01*
G01X44553Y5963D01*
G01X44658Y6068D01*
G01X44812Y6118D01*
G01X44866Y6118D01*
G01X45021Y6068D01*
G01X45125Y5963D01*
G01X45176Y5809D01*
G01X14973Y20505D02*
G01X14973Y19415D01*
G01X14973Y20505D02*
G01X14297Y20505D01*
G01X14973Y19987D02*
G01X14556Y19987D01*
G01X13954Y20297D02*
G01X13850Y20350D01*
G01X13695Y20505D01*
G01X13695Y19415D01*
G01X21313Y17447D02*
G01X22402Y17447D01*
G01X21313Y17447D02*
G01X21313Y16979D01*
G01X21363Y16824D01*
G01X21417Y16771D01*
G01X21521Y16720D01*
G01X21625Y16720D01*
G01X21729Y16771D01*
G01X21780Y16824D01*
G01X21831Y16979D01*
G01X21831Y17447D01*
G01X21831Y17083D02*
G01X22402Y16720D01*
G01X21521Y16377D02*
G01X21468Y16273D01*
G01X21313Y16116D01*
G01X22402Y16116D01*
G01X21676Y15097D02*
G01X21831Y15150D01*
G01X21935Y15255D01*
G01X21988Y15410D01*
G01X21988Y15463D01*
G01X21935Y15618D01*
G01X21831Y15722D01*
G01X21676Y15773D01*
G01X21625Y15773D01*
G01X21468Y15722D01*
G01X21363Y15618D01*
G01X21313Y15463D01*
G01X21313Y15410D01*
G01X21363Y15255D01*
G01X21468Y15150D01*
G01X21676Y15097D01*
G01X21935Y15097D01*
G01X22197Y15150D01*
G01X22352Y15255D01*
G01X22402Y15410D01*
G01X22402Y15514D01*
G01X22352Y15669D01*
G01X22247Y15722D01*
G01X55486Y4884D02*
G01X55486Y3794D01*
G01X55486Y4884D02*
G01X55018Y4884D01*
G01X54863Y4833D01*
G01X54810Y4780D01*
G01X54759Y4676D01*
G01X54759Y4572D01*
G01X54810Y4467D01*
G01X54863Y4417D01*
G01X55018Y4366D01*
G01X55486Y4366D01*
G01X55122Y4366D02*
G01X54759Y3794D01*
G01X54416Y4676D02*
G01X54312Y4729D01*
G01X54155Y4884D01*
G01X54155Y3794D01*
G01X53294Y4884D02*
G01X53812Y4157D01*
G01X53035Y4157D01*
G01X53294Y4884D02*
G01X53294Y3794D01*
G01X55613Y10218D02*
G01X55613Y9128D01*
G01X55613Y10218D02*
G01X55145Y10218D01*
G01X54990Y10167D01*
G01X54937Y10114D01*
G01X54886Y10010D01*
G01X54886Y9906D01*
G01X54937Y9801D01*
G01X54990Y9751D01*
G01X55145Y9700D01*
G01X55613Y9700D01*
G01X55249Y9700D02*
G01X54886Y9128D01*
G01X54543Y10010D02*
G01X54439Y10063D01*
G01X54282Y10218D01*
G01X54282Y9128D01*
G01X53835Y10218D02*
G01X53263Y10218D01*
G01X53576Y9801D01*
G01X53421Y9801D01*
G01X53317Y9751D01*
G01X53263Y9700D01*
G01X53212Y9542D01*
G01X53212Y9438D01*
G01X53263Y9283D01*
G01X53367Y9179D01*
G01X53525Y9128D01*
G01X53680Y9128D01*
G01X53835Y9179D01*
G01X53888Y9230D01*
G01X53939Y9334D01*
G01X55613Y15552D02*
G01X55613Y14462D01*
G01X55613Y15552D02*
G01X55145Y15552D01*
G01X54990Y15501D01*
G01X54937Y15448D01*
G01X54886Y15344D01*
G01X54886Y15240D01*
G01X54937Y15135D01*
G01X54990Y15085D01*
G01X55145Y15034D01*
G01X55613Y15034D01*
G01X55249Y15034D02*
G01X54886Y14462D01*
G01X54543Y15344D02*
G01X54439Y15397D01*
G01X54282Y15552D01*
G01X54282Y14462D01*
G01X53888Y15293D02*
G01X53888Y15344D01*
G01X53835Y15448D01*
G01X53784Y15501D01*
G01X53680Y15552D01*
G01X53471Y15552D01*
G01X53367Y15501D01*
G01X53317Y15448D01*
G01X53263Y15344D01*
G01X53263Y15240D01*
G01X53317Y15135D01*
G01X53421Y14980D01*
G01X53939Y14462D01*
G01X53212Y14462D01*
G01X13576Y10070D02*
G01X13576Y11161D01*
G01X13576Y10070D02*
G01X14251Y10070D01*
G01X13576Y10590D02*
G01X13991Y10590D01*
G01X14646Y10330D02*
G01X14646Y10278D01*
G01X14698Y10174D01*
G01X14750Y10122D01*
G01X14854Y10070D01*
G01X15062Y10070D01*
G01X15166Y10122D01*
G01X15218Y10174D01*
G01X15270Y10278D01*
G01X15270Y10382D01*
G01X15218Y10486D01*
G01X15114Y10642D01*
G01X14594Y11161D01*
G01X15321Y11161D01*
G01X8877Y30665D02*
G01X8877Y29885D01*
G01X8826Y29730D01*
G01X8722Y29626D01*
G01X8564Y29575D01*
G01X8460Y29575D01*
G01X8305Y29626D01*
G01X8201Y29730D01*
G01X8150Y29885D01*
G01X8150Y30665D01*
G01X7546Y30665D02*
G01X7703Y30614D01*
G01X7754Y30510D01*
G01X7754Y30406D01*
G01X7703Y30302D01*
G01X7599Y30248D01*
G01X7391Y30198D01*
G01X7236Y30147D01*
G01X7132Y30043D01*
G01X7078Y29938D01*
G01X7078Y29781D01*
G01X7132Y29677D01*
G01X7183Y29626D01*
G01X7340Y29575D01*
G01X7546Y29575D01*
G01X7703Y29626D01*
G01X7754Y29677D01*
G01X7807Y29781D01*
G01X7807Y29938D01*
G01X7754Y30043D01*
G01X7650Y30147D01*
G01X7495Y30198D01*
G01X7287Y30248D01*
G01X7183Y30302D01*
G01X7132Y30406D01*
G01X7132Y30510D01*
G01X7183Y30614D01*
G01X7340Y30665D01*
G01X7546Y30665D01*
G01X8877Y41587D02*
G01X8877Y40497D01*
G01X8877Y40497D02*
G01X8255Y40497D01*
G01X7858Y41328D02*
G01X7858Y41379D01*
G01X7807Y41483D01*
G01X7754Y41536D01*
G01X7650Y41587D01*
G01X7442Y41587D01*
G01X7340Y41536D01*
G01X7287Y41483D01*
G01X7236Y41379D01*
G01X7236Y41275D01*
G01X7287Y41170D01*
G01X7391Y41015D01*
G01X7912Y40497D01*
G01X7183Y40497D01*
G01X19408Y32052D02*
G01X20187Y32052D01*
G01X20342Y32001D01*
G01X20447Y31897D01*
G01X20497Y31739D01*
G01X20497Y31635D01*
G01X20447Y31480D01*
G01X20342Y31376D01*
G01X20187Y31325D01*
G01X19408Y31325D01*
G01X19667Y30929D02*
G01X19616Y30929D01*
G01X19512Y30878D01*
G01X19458Y30825D01*
G01X19408Y30721D01*
G01X19408Y30515D01*
G01X19458Y30411D01*
G01X19512Y30358D01*
G01X19616Y30307D01*
G01X19720Y30307D01*
G01X19824Y30358D01*
G01X19979Y30462D01*
G01X20497Y30983D01*
G01X20497Y30254D01*
G01X993Y13959D02*
G01X1043Y14063D01*
G01X1148Y14168D01*
G01X1252Y14221D01*
G01X1409Y14272D01*
G01X1668Y14272D01*
G01X1823Y14221D01*
G01X1927Y14168D01*
G01X2032Y14063D01*
G01X2082Y13959D01*
G01X2082Y13751D01*
G01X2032Y13649D01*
G01X1927Y13545D01*
G01X1823Y13492D01*
G01X1668Y13441D01*
G01X1409Y13441D01*
G01X1252Y13492D01*
G01X1148Y13545D01*
G01X1043Y13649D01*
G01X993Y13751D01*
G01X993Y13959D01*
G01X1877Y13804D02*
G01X2186Y13492D01*
G01X993Y12994D02*
G01X993Y12423D01*
G01X1409Y12735D01*
G01X1409Y12578D01*
G01X1460Y12473D01*
G01X1511Y12423D01*
G01X1668Y12369D01*
G01X1772Y12369D01*
G01X1927Y12423D01*
G01X2032Y12527D01*
G01X2082Y12682D01*
G01X2082Y12837D01*
G01X2032Y12994D01*
G01X1981Y13045D01*
G01X1877Y13098D01*
G01X40246Y48699D02*
G01X40246Y47919D01*
G01X40195Y47764D01*
G01X40091Y47660D01*
G01X39933Y47609D01*
G01X39829Y47609D01*
G01X39674Y47660D01*
G01X39570Y47764D01*
G01X39519Y47919D01*
G01X39519Y48699D01*
G01X39176Y48491D02*
G01X39072Y48544D01*
G01X38915Y48699D01*
G01X38915Y47609D01*
G01X10137Y16304D02*
G01X11226Y16304D01*
G01X10137Y16304D02*
G01X10137Y15836D01*
G01X10187Y15681D01*
G01X10241Y15628D01*
G01X10345Y15577D01*
G01X10449Y15577D01*
G01X10553Y15628D01*
G01X10604Y15681D01*
G01X10655Y15836D01*
G01X10655Y16304D01*
G01X10655Y15940D02*
G01X11226Y15577D01*
G01X10137Y15130D02*
G01X10137Y14559D01*
G01X10553Y14869D01*
G01X10553Y14714D01*
G01X10604Y14609D01*
G01X10655Y14559D01*
G01X10812Y14505D01*
G01X10916Y14505D01*
G01X11071Y14559D01*
G01X11176Y14663D01*
G01X11226Y14818D01*
G01X11226Y14973D01*
G01X11176Y15130D01*
G01X11125Y15181D01*
G01X11021Y15234D01*
G01X18392Y26591D02*
G01X19481Y26591D01*
G01X18392Y26591D02*
G01X18392Y26123D01*
G01X18442Y25968D01*
G01X18496Y25915D01*
G01X18600Y25864D01*
G01X18704Y25864D01*
G01X18808Y25915D01*
G01X18859Y25968D01*
G01X18910Y26123D01*
G01X18910Y26591D01*
G01X18910Y26227D02*
G01X19481Y25864D01*
G01X18392Y25260D02*
G01X18442Y25417D01*
G01X18547Y25468D01*
G01X18651Y25468D01*
G01X18755Y25417D01*
G01X18808Y25313D01*
G01X18859Y25105D01*
G01X18910Y24950D01*
G01X19014Y24846D01*
G01X19118Y24792D01*
G01X19276Y24792D01*
G01X19380Y24846D01*
G01X19431Y24896D01*
G01X19481Y25054D01*
G01X19481Y25260D01*
G01X19431Y25417D01*
G01X19380Y25468D01*
G01X19276Y25521D01*
G01X19118Y25521D01*
G01X19014Y25468D01*
G01X18910Y25364D01*
G01X18859Y25209D01*
G01X18808Y25001D01*
G01X18755Y24896D01*
G01X18651Y24846D01*
G01X18547Y24846D01*
G01X18442Y24896D01*
G01X18392Y25054D01*
G01X18392Y25260D01*
G01X27937Y24813D02*
G01X26847Y24813D01*
G01X27937Y24813D02*
G01X27937Y25280D01*
G01X27886Y25435D01*
G01X27833Y25489D01*
G01X27729Y25539D01*
G01X27625Y25539D01*
G01X27520Y25489D01*
G01X27470Y25435D01*
G01X27419Y25280D01*
G01X27419Y24813D01*
G01X27419Y25176D02*
G01X26847Y25539D01*
G01X27574Y26558D02*
G01X27419Y26507D01*
G01X27315Y26403D01*
G01X27261Y26248D01*
G01X27261Y26195D01*
G01X27315Y26040D01*
G01X27419Y25936D01*
G01X27574Y25882D01*
G01X27625Y25882D01*
G01X27782Y25936D01*
G01X27886Y26040D01*
G01X27937Y26195D01*
G01X27937Y26248D01*
G01X27886Y26403D01*
G01X27782Y26507D01*
G01X27574Y26558D01*
G01X27315Y26558D01*
G01X27053Y26507D01*
G01X26898Y26403D01*
G01X26847Y26248D01*
G01X26847Y26144D01*
G01X26898Y25986D01*
G01X27002Y25936D01*
G01X27739Y17741D02*
G01X27843Y17691D01*
G01X27947Y17586D01*
G01X28000Y17482D01*
G01X28051Y17325D01*
G01X28051Y17066D01*
G01X28000Y16911D01*
G01X27947Y16807D01*
G01X27843Y16703D01*
G01X27739Y16652D01*
G01X27531Y16652D01*
G01X27429Y16703D01*
G01X27325Y16807D01*
G01X27271Y16911D01*
G01X27221Y17066D01*
G01X27221Y17325D01*
G01X27271Y17482D01*
G01X27325Y17586D01*
G01X27429Y17691D01*
G01X27531Y17741D01*
G01X27739Y17741D01*
G01X27584Y16857D02*
G01X27271Y16548D01*
G01X26824Y17482D02*
G01X26824Y17533D01*
G01X26774Y17637D01*
G01X26720Y17691D01*
G01X26616Y17741D01*
G01X26410Y17741D01*
G01X26306Y17691D01*
G01X26253Y17637D01*
G01X26202Y17533D01*
G01X26202Y17429D01*
G01X26253Y17325D01*
G01X26357Y17170D01*
G01X26878Y16652D01*
G01X26149Y16652D01*
G01X9502Y3731D02*
G01X10591Y3731D01*
G01X9502Y3731D02*
G01X9502Y3368D01*
G01X9552Y3210D01*
G01X9657Y3108D01*
G01X9761Y3055D01*
G01X9918Y3004D01*
G01X10177Y3004D01*
G01X10332Y3055D01*
G01X10436Y3108D01*
G01X10541Y3210D01*
G01X10591Y3368D01*
G01X10591Y3731D01*
G01X9710Y2661D02*
G01X9657Y2557D01*
G01X9502Y2400D01*
G01X10591Y2400D01*
G01X24498Y41333D02*
G01X24498Y40243D01*
G01X24498Y41333D02*
G01X24030Y41333D01*
G01X23875Y41282D01*
G01X23822Y41229D01*
G01X23771Y41125D01*
G01X23771Y41021D01*
G01X23822Y40916D01*
G01X23875Y40866D01*
G01X24030Y40815D01*
G01X24498Y40815D01*
G01X24134Y40815D02*
G01X23771Y40243D01*
G01X23375Y41074D02*
G01X23375Y41125D01*
G01X23324Y41229D01*
G01X23271Y41282D01*
G01X23167Y41333D01*
G01X22961Y41333D01*
G01X22857Y41282D01*
G01X22804Y41229D01*
G01X22753Y41125D01*
G01X22753Y41021D01*
G01X22804Y40916D01*
G01X22908Y40761D01*
G01X23428Y40243D01*
G01X22699Y40243D01*
G01X22356Y41125D02*
G01X22252Y41178D01*
G01X22097Y41333D01*
G01X22097Y40243D01*
G01X14142Y30982D02*
G01X14246Y30929D01*
G01X14351Y30825D01*
G01X14401Y30723D01*
G01X14401Y30515D01*
G01X14351Y30411D01*
G01X14246Y30307D01*
G01X14142Y30253D01*
G01X13985Y30203D01*
G01X13726Y30203D01*
G01X13571Y30253D01*
G01X13467Y30307D01*
G01X13362Y30411D01*
G01X13312Y30515D01*
G01X13312Y30723D01*
G01X13362Y30825D01*
G01X13467Y30929D01*
G01X13571Y30982D01*
G01X14401Y31947D02*
G01X14401Y31429D01*
G01X13934Y31376D01*
G01X13985Y31429D01*
G01X14038Y31584D01*
G01X14038Y31739D01*
G01X13985Y31897D01*
G01X13883Y32001D01*
G01X13726Y32052D01*
G01X13622Y32052D01*
G01X13467Y32001D01*
G01X13362Y31897D01*
G01X13312Y31739D01*
G01X13312Y31584D01*
G01X13362Y31429D01*
G01X13413Y31376D01*
G01X13517Y31325D01*
G01X14089Y34529D02*
G01X14193Y34476D01*
G01X14297Y34372D01*
G01X14348Y34270D01*
G01X14348Y34062D01*
G01X14297Y33958D01*
G01X14193Y33854D01*
G01X14089Y33800D01*
G01X13931Y33749D01*
G01X13672Y33749D01*
G01X13517Y33800D01*
G01X13413Y33854D01*
G01X13309Y33958D01*
G01X13258Y34062D01*
G01X13258Y34270D01*
G01X13309Y34372D01*
G01X13413Y34476D01*
G01X13517Y34529D01*
G01X14193Y35494D02*
G01X14297Y35444D01*
G01X14348Y35286D01*
G01X14348Y35185D01*
G01X14297Y35027D01*
G01X14140Y34923D01*
G01X13881Y34872D01*
G01X13622Y34872D01*
G01X13413Y34923D01*
G01X13309Y35027D01*
G01X13258Y35185D01*
G01X13258Y35235D01*
G01X13309Y35390D01*
G01X13413Y35494D01*
G01X13568Y35548D01*
G01X13622Y35548D01*
G01X13776Y35494D01*
G01X13881Y35390D01*
G01X13931Y35235D01*
G01X13931Y35185D01*
G01X13881Y35027D01*
G01X13776Y34923D01*
G01X13622Y34872D01*
G01X1325Y33168D02*
G01X1221Y33221D01*
G01X1117Y33325D01*
G01X1066Y33427D01*
G01X1066Y33635D01*
G01X1117Y33739D01*
G01X1221Y33844D01*
G01X1325Y33897D01*
G01X1483Y33948D01*
G01X1742Y33948D01*
G01X1897Y33897D01*
G01X2001Y33844D01*
G01X2105Y33739D01*
G01X2156Y33635D01*
G01X2156Y33427D01*
G01X2105Y33325D01*
G01X2001Y33221D01*
G01X1897Y33168D01*
G01X1066Y32099D02*
G01X2156Y32617D01*
G01X1066Y32825D02*
G01X1066Y32099D01*
G01X21191Y22001D02*
G01X21087Y22054D01*
G01X20982Y22159D01*
G01X20932Y22260D01*
G01X20932Y22468D01*
G01X20982Y22573D01*
G01X21087Y22677D01*
G01X21191Y22730D01*
G01X21348Y22781D01*
G01X21607Y22781D01*
G01X21762Y22730D01*
G01X21866Y22677D01*
G01X21971Y22573D01*
G01X22021Y22468D01*
G01X22021Y22260D01*
G01X21971Y22159D01*
G01X21866Y22054D01*
G01X21762Y22001D01*
G01X20932Y21140D02*
G01X21658Y21658D01*
G01X21658Y20878D01*
G01X20932Y21140D02*
G01X22021Y21140D01*
G01X25242Y34597D02*
G01X25295Y34701D01*
G01X25400Y34805D01*
G01X25501Y34856D01*
G01X25710Y34856D01*
G01X25814Y34805D01*
G01X25918Y34701D01*
G01X25971Y34597D01*
G01X26022Y34439D01*
G01X26022Y34180D01*
G01X25971Y34025D01*
G01X25918Y33921D01*
G01X25814Y33817D01*
G01X25710Y33766D01*
G01X25501Y33766D01*
G01X25400Y33817D01*
G01X25295Y33921D01*
G01X25242Y34025D01*
G01X24899Y34648D02*
G01X24795Y34701D01*
G01X24640Y34856D01*
G01X24640Y33766D01*
G01X28826Y35735D02*
G01X27736Y35735D01*
G01X28826Y35735D02*
G01X28826Y36202D01*
G01X28775Y36357D01*
G01X28722Y36411D01*
G01X28618Y36461D01*
G01X28514Y36461D01*
G01X28409Y36411D01*
G01X28359Y36357D01*
G01X28308Y36202D01*
G01X28308Y35735D01*
G01X28308Y36098D02*
G01X27736Y36461D01*
G01X28567Y36858D02*
G01X28618Y36858D01*
G01X28722Y36908D01*
G01X28775Y36962D01*
G01X28826Y37066D01*
G01X28826Y37272D01*
G01X28775Y37376D01*
G01X28722Y37429D01*
G01X28618Y37480D01*
G01X28514Y37480D01*
G01X28409Y37429D01*
G01X28254Y37325D01*
G01X27736Y36804D01*
G01X27736Y37533D01*
G01X28567Y37927D02*
G01X28618Y37927D01*
G01X28722Y37980D01*
G01X28775Y38031D01*
G01X28826Y38135D01*
G01X28826Y38343D01*
G01X28775Y38448D01*
G01X28722Y38498D01*
G01X28618Y38552D01*
G01X28514Y38552D01*
G01X28409Y38498D01*
G01X28254Y38394D01*
G01X27736Y37876D01*
G01X27736Y38603D01*
G01X17884Y38529D02*
G01X18973Y38529D01*
G01X17884Y38529D02*
G01X17884Y38061D01*
G01X17934Y37906D01*
G01X17988Y37853D01*
G01X18092Y37802D01*
G01X18196Y37802D01*
G01X18300Y37853D01*
G01X18351Y37906D01*
G01X18402Y38061D01*
G01X18402Y38529D01*
G01X18402Y38165D02*
G01X18973Y37802D01*
G01X18143Y37406D02*
G01X18092Y37406D01*
G01X17988Y37355D01*
G01X17934Y37302D01*
G01X17884Y37198D01*
G01X17884Y36992D01*
G01X17934Y36888D01*
G01X17988Y36834D01*
G01X18092Y36784D01*
G01X18196Y36784D01*
G01X18300Y36834D01*
G01X18455Y36939D01*
G01X18973Y37459D01*
G01X18973Y36730D01*
G01X17884Y36078D02*
G01X17934Y36232D01*
G01X18092Y36337D01*
G01X18351Y36387D01*
G01X18506Y36387D01*
G01X18768Y36337D01*
G01X18923Y36232D01*
G01X18973Y36078D01*
G01X18973Y35973D01*
G01X18923Y35816D01*
G01X18768Y35712D01*
G01X18506Y35661D01*
G01X18351Y35661D01*
G01X18092Y35712D01*
G01X17934Y35816D01*
G01X17884Y35973D01*
G01X17884Y36078D01*
G01X31727Y44244D02*
G01X32816Y44244D01*
G01X31727Y44244D02*
G01X31727Y43776D01*
G01X31777Y43621D01*
G01X31831Y43568D01*
G01X31935Y43517D01*
G01X32039Y43517D01*
G01X32143Y43568D01*
G01X32194Y43621D01*
G01X32245Y43776D01*
G01X32245Y44244D01*
G01X32245Y43880D02*
G01X32816Y43517D01*
G01X31986Y43121D02*
G01X31935Y43121D01*
G01X31831Y43070D01*
G01X31777Y43017D01*
G01X31727Y42913D01*
G01X31727Y42707D01*
G01X31777Y42603D01*
G01X31831Y42549D01*
G01X31935Y42499D01*
G01X32039Y42499D01*
G01X32143Y42549D01*
G01X32298Y42654D01*
G01X32816Y43174D01*
G01X32816Y42445D01*
G01X46479Y42974D02*
G01X45389Y42974D01*
G01X46479Y42974D02*
G01X46479Y43441D01*
G01X46428Y43596D01*
G01X46375Y43650D01*
G01X46271Y43700D01*
G01X46167Y43700D01*
G01X46062Y43650D01*
G01X46012Y43596D01*
G01X45961Y43441D01*
G01X45961Y42974D01*
G01X45961Y43337D02*
G01X45389Y43700D01*
G01X46271Y44043D02*
G01X46324Y44147D01*
G01X46479Y44305D01*
G01X45389Y44305D01*
G54D10*
G75*
G01X14208Y17517D02*
G03X14188Y18737I-50J610D01*
G01*
G75*
G01X14248Y17517D02*
G03X14465Y16304I155J-598D01*
G01*
G75*
G01X24072Y31684D02*
G03X24072Y30389I0J-648D01*
G01*
G54D45*
G75*
G01X24289Y28621D02*
G02X24286Y28621I-1J-125D01*
G01*
G54D10*
G75*
G01X41847Y44209D02*
G03X41847Y43029I-44J-590D01*
G01*
G75*
G01X11325Y32686D02*
G03X11125Y32486I0J-200D01*
G01*
G75*
G01X12525Y32686D02*
G02X12725Y32486I0J-200D01*
G01*
G75*
G01X11325Y29386D02*
G02X11125Y29586I0J200D01*
G01*
G75*
G01X12525Y29386D02*
G03X12725Y29586I0J200D01*
G01*
G75*
G01X12525Y33196D02*
G03X12725Y33396I0J200D01*
G01*
G75*
G01X11325Y33196D02*
G02X11125Y33396I0J200D01*
G01*
G75*
G01X12525Y36496D02*
G02X12725Y36296I0J-200D01*
G01*
G75*
G01X11325Y36496D02*
G03X11125Y36296I0J-200D01*
G01*
G75*
G01X4143Y31418D02*
G03X4343Y31618I0J200D01*
G01*
G75*
G01X2943Y31418D02*
G02X2743Y31618I0J200D01*
G01*
G75*
G01X4143Y34718D02*
G02X4343Y34518I0J-200D01*
G01*
G75*
G01X2943Y34718D02*
G03X2743Y34518I0J-200D01*
G01*
G75*
G01X22501Y26717D02*
G03X22301Y26517I0J-200D01*
G01*
G75*
G01X23701Y26717D02*
G02X23901Y26517I0J-200D01*
G01*
G75*
G01X22501Y23417D02*
G02X22301Y23617I0J200D01*
G01*
G75*
G01X23701Y23417D02*
G03X23901Y23617I0J200D01*
G01*
G75*
G01X25005Y36843D02*
G03X24805Y37043I-200J0D01*
G01*
G75*
G01X25005Y35643D02*
G02X24805Y35443I-200J0D01*
G01*
G75*
G01X21705Y36843D02*
G02X21905Y37043I200J0D01*
G01*
G75*
G01X21705Y35643D02*
G03X21905Y35443I200J0D01*
G01*
G54D45*
G75*
G01X6647Y35100D02*
G03X6647Y35100I-55J0D01*
G01*
G54D10*
G75*
G01X5956Y15034D02*
G03X5956Y15034I-127J0D01*
G01*
G75*
G01X42215Y40942D02*
G03X42215Y40942I-190J0D01*
G01*
M00*
M02*
