G04 Layer: TopSolderMaskLayer*
G04 EasyEDA v6.3.39, 2020-04-29T00:00:54+01:00*
G04 38e1d9d995c248c0af5722392e401878,0b17d191cf8f41b9921c3230ced7432e,10*
G04 Gerber Generator version 0.2*
G04 Scale: 100 percent, Rotated: No, Reflected: No *
G04 Dimensions in millimeters *
G04 leading zeros omitted , absolute positions ,3 integer and 3 decimal *
%FSLAX33Y33*%
%MOMM*%
G90*
G71D02*

%ADD47C,2.203196*%
%ADD50C,1.879600*%
%ADD52C,1.778000*%
%ADD53R,1.778000X1.778000*%
%ADD56R,2.203196X0.803148*%

%LPD*%
G36*
G01X23395Y3771D02*
G01X23395Y5976D01*
G01X25600Y5976D01*
G01X25600Y3771D01*
G01X23395Y3771D01*
G37*
G54D47*
G01X27038Y4874D03*
G36*
G01X33225Y33822D02*
G01X33225Y34574D01*
G01X33779Y34574D01*
G01X33779Y33822D01*
G01X33225Y33822D01*
G37*
G36*
G01X32230Y33817D02*
G01X32230Y34569D01*
G01X32783Y34569D01*
G01X32783Y33817D01*
G01X32230Y33817D01*
G37*
G36*
G01X32230Y31816D02*
G01X32230Y32567D01*
G01X32783Y32567D01*
G01X32783Y31816D01*
G01X32230Y31816D01*
G37*
G36*
G01X33230Y31816D02*
G01X33230Y32567D01*
G01X33784Y32567D01*
G01X33784Y31816D01*
G01X33230Y31816D01*
G37*
G36*
G01X32100Y32745D02*
G01X32100Y33649D01*
G01X33903Y33649D01*
G01X33903Y32745D01*
G01X32100Y32745D01*
G37*
G54D50*
G01X8370Y51230D03*
G01X8370Y53769D03*
G01X10910Y51230D03*
G01X10910Y53769D03*
G01X13450Y51230D03*
G01X13450Y53769D03*
G01X15990Y51230D03*
G01X15990Y53769D03*
G01X18530Y51230D03*
G01X18530Y53769D03*
G01X21070Y51230D03*
G01X21070Y53769D03*
G01X23610Y51230D03*
G01X23610Y53769D03*
G01X26150Y51230D03*
G01X26150Y53769D03*
G01X28690Y51230D03*
G01X28690Y53769D03*
G01X31230Y51230D03*
G01X31230Y53769D03*
G01X33769Y51230D03*
G01X33769Y53769D03*
G01X36309Y51230D03*
G01X36309Y53769D03*
G01X38849Y51230D03*
G01X38849Y53769D03*
G01X41389Y51230D03*
G01X41389Y53769D03*
G01X43929Y51230D03*
G01X43929Y53769D03*
G01X46469Y51230D03*
G01X46469Y53769D03*
G01X49009Y51230D03*
G01X49009Y53769D03*
G01X51549Y51230D03*
G01X51549Y53769D03*
G01X54089Y51230D03*
G01X54089Y53769D03*
G01X56629Y51230D03*
G01X56629Y53769D03*
G36*
G01X54991Y6794D02*
G01X54991Y8796D01*
G01X56695Y8796D01*
G01X56695Y6794D01*
G01X54991Y6794D01*
G37*
G36*
G01X51991Y6794D02*
G01X51991Y8796D01*
G01X53695Y8796D01*
G01X53695Y6794D01*
G01X51991Y6794D01*
G37*
G36*
G01X54991Y12255D02*
G01X54991Y14257D01*
G01X56695Y14257D01*
G01X56695Y12255D01*
G01X54991Y12255D01*
G37*
G36*
G01X51991Y12255D02*
G01X51991Y14257D01*
G01X53695Y14257D01*
G01X53695Y12255D01*
G01X51991Y12255D01*
G37*
G54D47*
G01X42457Y9228D03*
G01X48957Y9228D03*
G01X48957Y13728D03*
G01X42457Y13728D03*
G01X42457Y1862D03*
G01X48957Y1862D03*
G01X48957Y6362D03*
G01X42457Y6362D03*
G54D52*
G01X33388Y12494D03*
G01X33388Y9954D03*
G01X33388Y7414D03*
G01X33388Y4874D03*
G54D53*
G01X33388Y2334D03*
G54D52*
G01X36944Y12494D03*
G01X36944Y9954D03*
G01X36944Y7414D03*
G01X36944Y4874D03*
G54D53*
G01X36944Y2334D03*
G36*
G01X54991Y1333D02*
G01X54991Y3335D01*
G01X56695Y3335D01*
G01X56695Y1333D01*
G01X54991Y1333D01*
G37*
G36*
G01X51991Y1333D02*
G01X51991Y3335D01*
G01X53695Y3335D01*
G01X53695Y1333D01*
G01X51991Y1333D01*
G37*
G36*
G01X35529Y33619D02*
G01X35529Y34823D01*
G01X36835Y34823D01*
G01X36835Y33619D01*
G01X35529Y33619D01*
G37*
G36*
G01X35529Y31821D02*
G01X35529Y33022D01*
G01X36835Y33022D01*
G01X36835Y31821D01*
G01X35529Y31821D01*
G37*
G36*
G01X23395Y8851D02*
G01X23395Y11056D01*
G01X25600Y11056D01*
G01X25600Y8851D01*
G01X23395Y8851D01*
G37*
G54D47*
G01X27038Y9954D03*
G01X9258Y7287D03*
G01X11798Y7287D03*
G01X17259Y7414D03*
G01X19799Y7414D03*
G36*
G01X59316Y17632D02*
G01X59316Y20134D01*
G01X62720Y20134D01*
G01X62720Y17632D01*
G01X59316Y17632D01*
G37*
G36*
G01X59316Y47282D02*
G01X59316Y49786D01*
G01X62720Y49786D01*
G01X62720Y47282D01*
G01X59316Y47282D01*
G37*
G36*
G01X60518Y21681D02*
G01X60518Y22486D01*
G01X62720Y22486D01*
G01X62720Y21681D01*
G01X60518Y21681D01*
G37*
G36*
G01X60518Y22481D02*
G01X60518Y23286D01*
G01X62720Y23286D01*
G01X62720Y22481D01*
G01X60518Y22481D01*
G37*
G36*
G01X60518Y23281D02*
G01X60518Y24086D01*
G01X62720Y24086D01*
G01X62720Y23281D01*
G01X60518Y23281D01*
G37*
G36*
G01X60518Y24081D02*
G01X60518Y24886D01*
G01X62720Y24886D01*
G01X62720Y24081D01*
G01X60518Y24081D01*
G37*
G36*
G01X60518Y24881D02*
G01X60518Y25684D01*
G01X62720Y25684D01*
G01X62720Y24881D01*
G01X60518Y24881D01*
G37*
G36*
G01X60518Y25681D02*
G01X60518Y26484D01*
G01X62720Y26484D01*
G01X62720Y25681D01*
G01X60518Y25681D01*
G37*
G36*
G01X60518Y26482D02*
G01X60518Y27284D01*
G01X62720Y27284D01*
G01X62720Y26482D01*
G01X60518Y26482D01*
G37*
G36*
G01X60518Y27282D02*
G01X60518Y28084D01*
G01X62720Y28084D01*
G01X62720Y27282D01*
G01X60518Y27282D01*
G37*
G36*
G01X52316Y22082D02*
G01X52316Y22885D01*
G01X54521Y22885D01*
G01X54521Y22082D01*
G01X52316Y22082D01*
G37*
G36*
G01X52316Y22882D02*
G01X52316Y23685D01*
G01X54521Y23685D01*
G01X54521Y22882D01*
G01X52316Y22882D01*
G37*
G36*
G01X52316Y23682D02*
G01X52316Y24485D01*
G01X54521Y24485D01*
G01X54521Y23682D01*
G01X52316Y23682D01*
G37*
G54D56*
G01X53418Y24884D03*
G01X53418Y25684D03*
G01X53418Y26484D03*
G01X53418Y27284D03*
G01X53418Y28084D03*
G36*
G01X60518Y31282D02*
G01X60518Y32085D01*
G01X62720Y32085D01*
G01X62720Y31282D01*
G01X60518Y31282D01*
G37*
G36*
G01X52316Y31681D02*
G01X52316Y32486D01*
G01X54521Y32486D01*
G01X54521Y31681D01*
G01X52316Y31681D01*
G37*
G36*
G01X52316Y32481D02*
G01X52316Y33286D01*
G01X54521Y33286D01*
G01X54521Y32481D01*
G01X52316Y32481D01*
G37*
G36*
G01X52316Y33281D02*
G01X52316Y34086D01*
G01X54521Y34086D01*
G01X54521Y33281D01*
G01X52316Y33281D01*
G37*
G36*
G01X52318Y34084D02*
G01X52318Y34886D01*
G01X54521Y34886D01*
G01X54521Y34084D01*
G01X52318Y34084D01*
G37*
G36*
G01X52318Y34884D02*
G01X52318Y35687D01*
G01X54521Y35687D01*
G01X54521Y34884D01*
G01X52318Y34884D01*
G37*
G36*
G01X52318Y35684D02*
G01X52318Y36487D01*
G01X54521Y36487D01*
G01X54521Y35684D01*
G01X52318Y35684D01*
G37*
G36*
G01X52318Y36484D02*
G01X52318Y37287D01*
G01X54521Y37287D01*
G01X54521Y36484D01*
G01X52318Y36484D01*
G37*
G36*
G01X52318Y37284D02*
G01X52318Y38087D01*
G01X54521Y38087D01*
G01X54521Y37284D01*
G01X52318Y37284D01*
G37*
G36*
G01X52318Y38084D02*
G01X52318Y38887D01*
G01X54521Y38887D01*
G01X54521Y38084D01*
G01X52318Y38084D01*
G37*
G36*
G01X52318Y38884D02*
G01X52318Y39687D01*
G01X54521Y39687D01*
G01X54521Y38884D01*
G01X52318Y38884D01*
G37*
G36*
G01X52318Y39684D02*
G01X52318Y40487D01*
G01X54521Y40487D01*
G01X54521Y39684D01*
G01X52318Y39684D01*
G37*
G36*
G01X52318Y40485D02*
G01X52318Y41287D01*
G01X54521Y41287D01*
G01X54521Y40485D01*
G01X52318Y40485D01*
G37*
G36*
G01X52318Y41285D02*
G01X52318Y42087D01*
G01X54521Y42087D01*
G01X54521Y41285D01*
G01X52318Y41285D01*
G37*
G36*
G01X52318Y42085D02*
G01X52318Y42887D01*
G01X54521Y42887D01*
G01X54521Y42085D01*
G01X52318Y42085D01*
G37*
G36*
G01X52318Y42885D02*
G01X52318Y43688D01*
G01X54521Y43688D01*
G01X54521Y42885D01*
G01X52318Y42885D01*
G37*
G36*
G01X52318Y43685D02*
G01X52318Y44488D01*
G01X54521Y44488D01*
G01X54521Y43685D01*
G01X52318Y43685D01*
G37*
G36*
G01X52318Y44485D02*
G01X52318Y45288D01*
G01X54521Y45288D01*
G01X54521Y44485D01*
G01X52318Y44485D01*
G37*
G36*
G01X52318Y45285D02*
G01X52318Y46088D01*
G01X54521Y46088D01*
G01X54521Y45285D01*
G01X52318Y45285D01*
G37*
G36*
G01X60518Y32082D02*
G01X60518Y32885D01*
G01X62720Y32885D01*
G01X62720Y32082D01*
G01X60518Y32082D01*
G37*
G36*
G01X60518Y32882D02*
G01X60518Y33685D01*
G01X62720Y33685D01*
G01X62720Y32882D01*
G01X60518Y32882D01*
G37*
G36*
G01X60518Y33682D02*
G01X60518Y34485D01*
G01X62720Y34485D01*
G01X62720Y33682D01*
G01X60518Y33682D01*
G37*
G36*
G01X60518Y34483D02*
G01X60518Y35285D01*
G01X62720Y35285D01*
G01X62720Y34483D01*
G01X60518Y34483D01*
G37*
G36*
G01X60518Y35283D02*
G01X60518Y36085D01*
G01X62720Y36085D01*
G01X62720Y35283D01*
G01X60518Y35283D01*
G37*
G36*
G01X60518Y36083D02*
G01X60518Y36885D01*
G01X62720Y36885D01*
G01X62720Y36083D01*
G01X60518Y36083D01*
G37*
G36*
G01X60518Y36883D02*
G01X60518Y37685D01*
G01X62720Y37685D01*
G01X62720Y36883D01*
G01X60518Y36883D01*
G37*
G36*
G01X60518Y37683D02*
G01X60518Y38486D01*
G01X62720Y38486D01*
G01X62720Y37683D01*
G01X60518Y37683D01*
G37*
G36*
G01X60518Y38483D02*
G01X60518Y39286D01*
G01X62720Y39286D01*
G01X62720Y38483D01*
G01X60518Y38483D01*
G37*
G36*
G01X60518Y39283D02*
G01X60518Y40086D01*
G01X62720Y40086D01*
G01X62720Y39283D01*
G01X60518Y39283D01*
G37*
G36*
G01X60518Y40083D02*
G01X60518Y40886D01*
G01X62720Y40886D01*
G01X62720Y40083D01*
G01X60518Y40083D01*
G37*
G36*
G01X60518Y40881D02*
G01X60518Y41686D01*
G01X62720Y41686D01*
G01X62720Y40881D01*
G01X60518Y40881D01*
G37*
G36*
G01X60518Y41681D02*
G01X60518Y42486D01*
G01X62720Y42486D01*
G01X62720Y41681D01*
G01X60518Y41681D01*
G37*
G36*
G01X60518Y42481D02*
G01X60518Y43286D01*
G01X62720Y43286D01*
G01X62720Y42481D01*
G01X60518Y42481D01*
G37*
G36*
G01X60518Y43281D02*
G01X60518Y44086D01*
G01X62720Y44086D01*
G01X62720Y43281D01*
G01X60518Y43281D01*
G37*
G36*
G01X60518Y44081D02*
G01X60518Y44886D01*
G01X62720Y44886D01*
G01X62720Y44081D01*
G01X60518Y44081D01*
G37*
G36*
G01X60518Y44881D02*
G01X60518Y45684D01*
G01X62720Y45684D01*
G01X62720Y44881D01*
G01X60518Y44881D01*
G37*
G36*
G01X8666Y19283D02*
G01X8666Y24284D01*
G01X11869Y24284D01*
G01X11869Y19283D01*
G01X8666Y19283D01*
G37*
G36*
G01X2367Y19283D02*
G01X2367Y24284D01*
G01X5570Y24284D01*
G01X5570Y19283D01*
G01X2367Y19283D01*
G37*
G36*
G01X2367Y43482D02*
G01X2367Y48486D01*
G01X5570Y48486D01*
G01X5570Y43482D01*
G01X2367Y43482D01*
G37*
G36*
G01X8666Y43482D02*
G01X8666Y48486D01*
G01X11869Y48486D01*
G01X11869Y43482D01*
G01X8666Y43482D01*
G37*
M00*
M02*
