;Layer: Drill PTH
;EasyEDA v6.3.39, 2020-04-29T00:00:54+01:00
;38e1d9d995c248c0af5722392e401878,0b17d191cf8f41b9921c3230ced7432e,10
;Gerber Generator version 0.2
M48
METRIC,LZ,000.000
;Holesize 1 = 0.305 METRIC
T01C0.305
;Holesize 2 = 0.901 METRIC
T02C0.901
;Holesize 3 = 1.021 METRIC
T03C1.021
;Holesize 4 = 1.200 METRIC
T04C1.200
;Holesize 5 = 1.301 METRIC
T05C1.301
%
G05
G90
T01
X+046723Y+041704
X+047739Y+038402
X+046723Y+038402
X+047739Y+041704
X+056248Y+033957
X+058661Y+034846
X+057264Y+048816
X+025895Y+044371
X+026022Y+045387
X+055613Y+037284
X+055613Y+038084
X+059715Y+034084
X+036309Y+046911
X+040500Y+030274
X+045580Y+037640
X+043294Y+036878
X+021069Y+044371
X+020053Y+044117
X+040500Y+034084
X+039357Y+033068
X+057518Y+013256
X+057518Y+007795
X+057518Y+002334
X+032880Y+030909
X+032499Y+035227
X+026403Y+018850
X+024752Y+018844
X+024371Y+027353
X+021196Y+022273
X+020307Y+027226
X+026403Y+033449
X+021577Y+040180
X+023736Y+040180
X+010528Y+032941
X+007988Y+035989
X+010528Y+017955
X+002400Y+010462
X+018656Y+020241
X+013322Y+005168
X+005194Y+034340
X+014338Y+033423
X+058026Y+047165
X+052692Y+049451
X+048755Y+033682
X+048755Y+038402
X+032626Y+040434
X+041113Y+011329
X+005194Y+036116
X+020180Y+034465
X+006845Y+015415
X+029894Y+013256
X+051295Y+040561
X+033769Y+040434
X+045580Y+040561
X+046977Y+027099
X+044945Y+017955
X+038087Y+023924
X+030467Y+033830
X+030467Y+025829
X+018529Y+014526
X+025387Y+048054
X+030467Y+045514
X+034150Y+048816
X+033388Y+020241
X+013957Y+045260
X+002400Y+011351
X+010528Y+016431
X+004178Y+030020
X+012687Y+038402
X+028308Y+027958
X+027165Y+024305
X+027800Y+040561
X+002146Y+017955
X+007099Y+017955
X+007607Y+004874
X+007607Y+001699
X+063106Y+014653
X+063106Y+008811
X+053454Y+018717
X+042532Y+043990
T02
X+008369Y+051230G85X+008370Y+051230
X+008370Y+053769G85X+008369Y+053769
X+010910Y+051230G85X+010909Y+051230
X+010910Y+053769G85X+010909Y+053769
X+013450Y+051230G85X+013449Y+051230
X+013450Y+053769G85X+013449Y+053769
X+015990Y+051230G85X+015989Y+051230
X+015990Y+053769G85X+015989Y+053769
X+018529Y+051230G85X+018530Y+051230
X+018530Y+053769G85X+018529Y+053769
X+021070Y+051230G85X+021069Y+051230
X+021070Y+053769G85X+021069Y+053769
X+023610Y+051230G85X+023609Y+051230
X+023610Y+053769G85X+023609Y+053769
X+026150Y+051230G85X+026149Y+051230
X+026150Y+053769G85X+026149Y+053769
X+028689Y+051230G85X+028690Y+051230
X+028690Y+053769G85X+028689Y+053769
X+031230Y+051230G85X+031229Y+051230
X+031230Y+053769G85X+031229Y+053769
X+033769Y+051230G85X+033769Y+051230
X+033769Y+053769G85X+033769Y+053769
X+036309Y+051230G85X+036309Y+051230
X+036309Y+053769G85X+036309Y+053769
X+038849Y+051230G85X+038849Y+051230
X+038849Y+053769G85X+038849Y+053769
X+041389Y+051230G85X+041389Y+051230
X+041389Y+053769G85X+041389Y+053769
X+043929Y+051230G85X+043929Y+051230
X+043929Y+053769G85X+043929Y+053769
X+046469Y+051230G85X+046469Y+051230
X+046469Y+053769G85X+046469Y+053769
X+049009Y+051230G85X+049009Y+051230
X+049009Y+053769G85X+049009Y+053769
X+051549Y+051230G85X+051549Y+051230
X+051549Y+053769G85X+051549Y+053769
X+054089Y+051230G85X+054089Y+051230
X+054089Y+053769G85X+054089Y+053769
X+056629Y+051230G85X+056629Y+051230
X+056629Y+053769G85X+056629Y+053769
T03
X+033388Y+012494
X+033388Y+009954
X+033388Y+007414
X+033388Y+004874
X+033388Y+002334
X+036944Y+012494
X+036944Y+009954
X+036944Y+007414
X+036944Y+004874
X+036944Y+002334
T04
X+024498Y+004874
X+027038Y+004874
X+042457Y+009228
X+048957Y+009228
X+048957Y+013728
X+042457Y+013728
X+042457Y+001862
X+048957Y+001862
X+048957Y+006362
X+042457Y+006362
X+024498Y+009954
X+027038Y+009954
T05
X+009258Y+007287
X+011798Y+007287
X+017259Y+007414
X+019799Y+007414
M30
