G04 Layer: TopSilkLayer*
G04 EasyEDA v6.3.39, 2020-04-29T00:00:54+01:00*
G04 38e1d9d995c248c0af5722392e401878,0b17d191cf8f41b9921c3230ced7432e,10*
G04 Gerber Generator version 0.2*
G04 Scale: 100 percent, Rotated: No, Reflected: No *
G04 Dimensions in millimeters *
G04 leading zeros omitted , absolute positions ,3 integer and 3 decimal *
%FSLAX33Y33*%
%MOMM*%
G90*
G71D02*

%ADD10C,0.254000*%
%ADD40C,0.203200*%
%ADD41C,0.202999*%
%ADD42C,0.101600*%
%ADD43C,0.152400*%

%LPD*%

%LPD*%
G36*
G01X7694Y18477D02*
G01X7578Y18477D01*
G01X7520Y18476D01*
G01X7463Y18474D01*
G01X7405Y18472D01*
G01X7347Y18468D01*
G01X7288Y18464D01*
G01X7172Y18452D01*
G01X7056Y18436D01*
G01X6997Y18427D01*
G01X6939Y18417D01*
G01X6881Y18405D01*
G01X6823Y18394D01*
G01X6765Y18380D01*
G01X6707Y18367D01*
G01X6649Y18352D01*
G01X6591Y18336D01*
G01X6473Y18300D01*
G01X6357Y18262D01*
G01X6300Y18241D01*
G01X6243Y18219D01*
G01X6187Y18197D01*
G01X6131Y18173D01*
G01X6076Y18149D01*
G01X6021Y18124D01*
G01X5967Y18099D01*
G01X5913Y18072D01*
G01X5807Y18016D01*
G01X5756Y17987D01*
G01X5704Y17957D01*
G01X5653Y17926D01*
G01X5603Y17895D01*
G01X5553Y17863D01*
G01X5455Y17797D01*
G01X5407Y17762D01*
G01X5313Y17692D01*
G01X5221Y17618D01*
G01X5177Y17580D01*
G01X5132Y17542D01*
G01X5089Y17503D01*
G01X5045Y17463D01*
G01X5003Y17422D01*
G01X4962Y17381D01*
G01X4920Y17340D01*
G01X4840Y17254D01*
G01X4801Y17211D01*
G01X4763Y17167D01*
G01X4725Y17122D01*
G01X4688Y17077D01*
G01X4652Y17031D01*
G01X4616Y16984D01*
G01X4581Y16937D01*
G01X4547Y16890D01*
G01X4514Y16842D01*
G01X4481Y16793D01*
G01X4449Y16744D01*
G01X4418Y16695D01*
G01X4388Y16645D01*
G01X4358Y16594D01*
G01X4329Y16543D01*
G01X4301Y16492D01*
G01X4273Y16439D01*
G01X4247Y16387D01*
G01X4221Y16334D01*
G01X4196Y16281D01*
G01X4172Y16228D01*
G01X4148Y16173D01*
G01X4125Y16119D01*
G01X4083Y16009D01*
G01X4063Y15953D01*
G01X4044Y15897D01*
G01X4025Y15840D01*
G01X4007Y15784D01*
G01X3990Y15726D01*
G01X3975Y15669D01*
G01X3960Y15611D01*
G01X3932Y15495D01*
G01X3908Y15377D01*
G01X3898Y15318D01*
G01X3888Y15258D01*
G01X3879Y15198D01*
G01X3871Y15138D01*
G01X3864Y15077D01*
G01X3858Y15017D01*
G01X3853Y14956D01*
G01X3849Y14895D01*
G01X3846Y14834D01*
G01X3844Y14773D01*
G01X3842Y14711D01*
G01X3842Y14649D01*
G01X3844Y14525D01*
G01X3847Y14463D01*
G01X3850Y14400D01*
G01X3855Y14337D01*
G01X3859Y14281D01*
G01X3871Y14171D01*
G01X3878Y14116D01*
G01X3894Y14008D01*
G01X3902Y13955D01*
G01X3912Y13901D01*
G01X3922Y13849D01*
G01X3944Y13745D01*
G01X3956Y13694D01*
G01X3969Y13643D01*
G01X3982Y13593D01*
G01X3996Y13542D01*
G01X4010Y13493D01*
G01X4025Y13444D01*
G01X4041Y13395D01*
G01X4057Y13347D01*
G01X4074Y13298D01*
G01X4091Y13251D01*
G01X4109Y13204D01*
G01X4146Y13111D01*
G01X4186Y13021D01*
G01X4207Y12975D01*
G01X4249Y12887D01*
G01X4294Y12801D01*
G01X4318Y12758D01*
G01X4341Y12716D01*
G01X4365Y12674D01*
G01X4390Y12632D01*
G01X4441Y12551D01*
G01X4494Y12472D01*
G01X4521Y12433D01*
G01X4549Y12394D01*
G01X4577Y12356D01*
G01X4605Y12319D01*
G01X4634Y12281D01*
G01X4663Y12244D01*
G01X4723Y12172D01*
G01X4753Y12137D01*
G01X4784Y12102D01*
G01X4912Y11966D01*
G01X4945Y11934D01*
G01X5012Y11870D01*
G01X5047Y11839D01*
G01X5081Y11808D01*
G01X5151Y11748D01*
G01X5187Y11719D01*
G01X5259Y11662D01*
G01X5295Y11634D01*
G01X5332Y11606D01*
G01X5369Y11579D01*
G01X5407Y11552D01*
G01X5445Y11527D01*
G01X5483Y11501D01*
G01X5521Y11476D01*
G01X5560Y11451D01*
G01X5638Y11404D01*
G01X5717Y11358D01*
G01X5797Y11314D01*
G01X5838Y11293D01*
G01X5879Y11273D01*
G01X5920Y11252D01*
G01X5961Y11232D01*
G01X6003Y11213D01*
G01X6044Y11194D01*
G01X6129Y11159D01*
G01X6171Y11141D01*
G01X6213Y11125D01*
G01X6256Y11108D01*
G01X6299Y11093D01*
G01X6342Y11077D01*
G01X6385Y11063D01*
G01X6429Y11049D01*
G01X6472Y11035D01*
G01X6560Y11009D01*
G01X6648Y10985D01*
G01X6693Y10974D01*
G01X6737Y10963D01*
G01X6827Y10943D01*
G01X6872Y10934D01*
G01X6916Y10926D01*
G01X6962Y10917D01*
G01X7097Y10896D01*
G01X7143Y10890D01*
G01X7188Y10884D01*
G01X7234Y10879D01*
G01X7280Y10875D01*
G01X7325Y10871D01*
G01X7371Y10867D01*
G01X7417Y10865D01*
G01X7463Y10862D01*
G01X7509Y10860D01*
G01X7554Y10859D01*
G01X7601Y10858D01*
G01X7646Y10857D01*
G01X7739Y10859D01*
G01X7785Y10860D01*
G01X7877Y10864D01*
G01X7923Y10867D01*
G01X7968Y10871D01*
G01X8015Y10874D01*
G01X8060Y10879D01*
G01X8107Y10884D01*
G01X8152Y10889D01*
G01X8198Y10896D01*
G01X8244Y10902D01*
G01X8335Y10917D01*
G01X8380Y10926D01*
G01X8426Y10935D01*
G01X8471Y10944D01*
G01X8517Y10954D01*
G01X8562Y10964D01*
G01X8607Y10975D01*
G01X8697Y10999D01*
G01X8787Y11025D01*
G01X8831Y11039D01*
G01X8876Y11053D01*
G01X8920Y11068D01*
G01X8964Y11084D01*
G01X9008Y11099D01*
G01X9096Y11133D01*
G01X9139Y11151D01*
G01X9183Y11169D01*
G01X9226Y11188D01*
G01X9268Y11208D01*
G01X9312Y11227D01*
G01X9354Y11248D01*
G01X9439Y11290D01*
G01X9481Y11313D01*
G01X9522Y11336D01*
G01X9564Y11359D01*
G01X9606Y11383D01*
G01X9646Y11407D01*
G01X9688Y11433D01*
G01X9728Y11458D01*
G01X9768Y11484D01*
G01X9849Y11538D01*
G01X9888Y11566D01*
G01X9966Y11624D01*
G01X10006Y11654D01*
G01X10044Y11684D01*
G01X10120Y11746D01*
G01X10157Y11778D01*
G01X10195Y11811D01*
G01X10232Y11844D01*
G01X10269Y11878D01*
G01X10341Y11947D01*
G01X10412Y12019D01*
G01X10482Y12093D01*
G01X10516Y12131D01*
G01X10550Y12170D01*
G01X10616Y12248D01*
G01X10649Y12289D01*
G01X10713Y12371D01*
G01X10745Y12413D01*
G01X10776Y12456D01*
G01X10837Y12544D01*
G01X10867Y12588D01*
G01X10897Y12633D01*
G01X10926Y12679D01*
G01X10954Y12725D01*
G01X10982Y12773D01*
G01X11010Y12820D01*
G01X11037Y12868D01*
G01X11064Y12917D01*
G01X11091Y12967D01*
G01X11117Y13016D01*
G01X11142Y13067D01*
G01X11166Y13118D01*
G01X11190Y13170D01*
G01X11212Y13224D01*
G01X11233Y13279D01*
G01X11254Y13335D01*
G01X11273Y13391D01*
G01X11292Y13449D01*
G01X11310Y13508D01*
G01X11326Y13568D01*
G01X11342Y13629D01*
G01X11370Y13753D01*
G01X11383Y13816D01*
G01X11394Y13880D01*
G01X11406Y13944D01*
G01X11415Y14009D01*
G01X11424Y14075D01*
G01X11433Y14140D01*
G01X11439Y14207D01*
G01X11445Y14273D01*
G01X11455Y14407D01*
G01X11458Y14474D01*
G01X11462Y14610D01*
G01X11462Y14677D01*
G01X11461Y14745D01*
G01X11457Y14879D01*
G01X11449Y15013D01*
G01X11443Y15079D01*
G01X11437Y15146D01*
G01X11430Y15211D01*
G01X11421Y15277D01*
G01X11412Y15341D01*
G01X11402Y15405D01*
G01X11391Y15469D01*
G01X11379Y15532D01*
G01X11365Y15594D01*
G01X11352Y15655D01*
G01X11337Y15715D01*
G01X11321Y15774D01*
G01X11304Y15833D01*
G01X11286Y15891D01*
G01X11267Y15947D01*
G01X11247Y16002D01*
G01X11226Y16056D01*
G01X11205Y16109D01*
G01X11182Y16161D01*
G01X11159Y16211D01*
G01X11134Y16260D01*
G01X11104Y16316D01*
G01X11074Y16371D01*
G01X11043Y16426D01*
G01X11012Y16480D01*
G01X10980Y16533D01*
G01X10947Y16586D01*
G01X10913Y16638D01*
G01X10879Y16689D01*
G01X10844Y16740D01*
G01X10809Y16790D01*
G01X10737Y16888D01*
G01X10700Y16936D01*
G01X10661Y16984D01*
G01X10623Y17031D01*
G01X10584Y17077D01*
G01X10545Y17122D01*
G01X10505Y17167D01*
G01X10423Y17255D01*
G01X10381Y17297D01*
G01X10339Y17340D01*
G01X10297Y17381D01*
G01X10253Y17421D01*
G01X10210Y17461D01*
G01X10166Y17501D01*
G01X10076Y17577D01*
G01X10030Y17614D01*
G01X9938Y17686D01*
G01X9891Y17721D01*
G01X9844Y17755D01*
G01X9796Y17789D01*
G01X9748Y17822D01*
G01X9699Y17853D01*
G01X9650Y17885D01*
G01X9601Y17915D01*
G01X9551Y17945D01*
G01X9501Y17974D01*
G01X9450Y18002D01*
G01X9400Y18029D01*
G01X9349Y18056D01*
G01X9297Y18082D01*
G01X9245Y18107D01*
G01X9193Y18131D01*
G01X9140Y18154D01*
G01X9088Y18177D01*
G01X9035Y18199D01*
G01X8981Y18220D01*
G01X8928Y18241D01*
G01X8820Y18279D01*
G01X8766Y18297D01*
G01X8711Y18314D01*
G01X8656Y18330D01*
G01X8600Y18345D01*
G01X8545Y18360D01*
G01X8490Y18374D01*
G01X8434Y18387D01*
G01X8378Y18399D01*
G01X8266Y18421D01*
G01X8152Y18439D01*
G01X8095Y18447D01*
G01X8039Y18454D01*
G01X7982Y18460D01*
G01X7924Y18465D01*
G01X7867Y18469D01*
G01X7809Y18472D01*
G01X7752Y18475D01*
G01X7694Y18477D01*
G37*

%LPC*%
G36*
G01X7043Y16103D02*
G01X7009Y16103D01*
G01X6968Y16098D01*
G01X6919Y16087D01*
G01X6862Y16071D01*
G01X6797Y16049D01*
G01X6721Y16022D01*
G01X6636Y15989D01*
G01X6539Y15952D01*
G01X6468Y15923D01*
G01X6405Y15893D01*
G01X6351Y15863D01*
G01X6305Y15832D01*
G01X6267Y15800D01*
G01X6236Y15766D01*
G01X6211Y15730D01*
G01X6194Y15691D01*
G01X6183Y15649D01*
G01X6178Y15603D01*
G01X6178Y15553D01*
G01X6183Y15499D01*
G01X6196Y15439D01*
G01X6213Y15383D01*
G01X6236Y15332D01*
G01X6263Y15288D01*
G01X6293Y15252D01*
G01X6325Y15224D01*
G01X6359Y15207D01*
G01X6393Y15201D01*
G01X6418Y15196D01*
G01X6443Y15183D01*
G01X6470Y15162D01*
G01X6498Y15133D01*
G01X6527Y15097D01*
G01X6555Y15055D01*
G01X6584Y15007D01*
G01X6612Y14955D01*
G01X6639Y14897D01*
G01X6664Y14836D01*
G01X6688Y14772D01*
G01X6710Y14705D01*
G01X6859Y14208D01*
G01X5606Y15622D01*
G01X5110Y15529D01*
G01X5009Y15508D01*
G01X4912Y15485D01*
G01X4823Y15460D01*
G01X4742Y15435D01*
G01X4673Y15410D01*
G01X4617Y15385D01*
G01X4577Y15362D01*
G01X4555Y15341D01*
G01X4537Y15297D01*
G01X4530Y15240D01*
G01X4531Y15174D01*
G01X4539Y15103D01*
G01X4555Y15029D01*
G01X4576Y14958D01*
G01X4600Y14890D01*
G01X4629Y14831D01*
G01X4660Y14782D01*
G01X4691Y14749D01*
G01X4723Y14734D01*
G01X4753Y14740D01*
G01X4769Y14746D01*
G01X4785Y14744D01*
G01X4803Y14735D01*
G01X4821Y14719D01*
G01X4840Y14697D01*
G01X4860Y14670D01*
G01X4880Y14636D01*
G01X4901Y14598D01*
G01X4922Y14554D01*
G01X4943Y14506D01*
G01X4964Y14455D01*
G01X4986Y14399D01*
G01X5006Y14340D01*
G01X5028Y14278D01*
G01X5048Y14213D01*
G01X5068Y14146D01*
G01X5088Y14077D01*
G01X5107Y14006D01*
G01X5125Y13934D01*
G01X5142Y13862D01*
G01X5159Y13789D01*
G01X5174Y13716D01*
G01X5189Y13642D01*
G01X5213Y13498D01*
G01X5223Y13428D01*
G01X5232Y13359D01*
G01X5239Y13293D01*
G01X5244Y13229D01*
G01X5247Y13167D01*
G01X5248Y13109D01*
G01X5247Y13054D01*
G01X5244Y12965D01*
G01X5243Y12883D01*
G01X5244Y12809D01*
G01X5248Y12743D01*
G01X5254Y12683D01*
G01X5263Y12631D01*
G01X5276Y12586D01*
G01X5291Y12547D01*
G01X5311Y12515D01*
G01X5334Y12489D01*
G01X5362Y12468D01*
G01X5394Y12453D01*
G01X5431Y12443D01*
G01X5472Y12439D01*
G01X5519Y12440D01*
G01X5571Y12446D01*
G01X5630Y12455D01*
G01X5694Y12469D01*
G01X5764Y12487D01*
G01X5840Y12508D01*
G01X5906Y12530D01*
G01X5966Y12555D01*
G01X6020Y12583D01*
G01X6068Y12613D01*
G01X6111Y12646D01*
G01X6147Y12682D01*
G01X6178Y12719D01*
G01X6203Y12758D01*
G01X6222Y12799D01*
G01X6235Y12840D01*
G01X6241Y12883D01*
G01X6242Y12927D01*
G01X6236Y12972D01*
G01X6225Y13017D01*
G01X6206Y13062D01*
G01X6182Y13107D01*
G01X6151Y13152D01*
G01X6113Y13196D01*
G01X6070Y13240D01*
G01X6019Y13282D01*
G01X5983Y13316D01*
G01X5945Y13360D01*
G01X5908Y13413D01*
G01X5871Y13473D01*
G01X5837Y13538D01*
G01X5805Y13607D01*
G01X5779Y13676D01*
G01X5756Y13745D01*
G01X5744Y13792D01*
G01X5736Y13831D01*
G01X5733Y13862D01*
G01X5734Y13885D01*
G01X5740Y13899D01*
G01X5752Y13905D01*
G01X5769Y13902D01*
G01X5793Y13891D01*
G01X5823Y13870D01*
G01X5859Y13840D01*
G01X5902Y13801D01*
G01X5953Y13752D01*
G01X6011Y13693D01*
G01X6077Y13624D01*
G01X6151Y13544D01*
G01X6234Y13454D01*
G01X6304Y13379D01*
G01X6369Y13309D01*
G01X6430Y13246D01*
G01X6488Y13189D01*
G01X6541Y13137D01*
G01X6591Y13092D01*
G01X6638Y13051D01*
G01X6683Y13015D01*
G01X6726Y12985D01*
G01X6767Y12959D01*
G01X6807Y12938D01*
G01X6846Y12920D01*
G01X6884Y12907D01*
G01X6923Y12898D01*
G01X6961Y12892D01*
G01X7000Y12889D01*
G01X7040Y12890D01*
G01X7082Y12893D01*
G01X7125Y12899D01*
G01X7225Y12919D01*
G01X7276Y12931D01*
G01X7323Y12943D01*
G01X7367Y12957D01*
G01X7406Y12971D01*
G01X7442Y12986D01*
G01X7474Y13003D01*
G01X7503Y13022D01*
G01X7529Y13042D01*
G01X7550Y13065D01*
G01X7569Y13091D01*
G01X7584Y13119D01*
G01X7596Y13150D01*
G01X7604Y13185D01*
G01X7609Y13222D01*
G01X7611Y13264D01*
G01X7610Y13310D01*
G01X7606Y13360D01*
G01X7599Y13415D01*
G01X7589Y13474D01*
G01X7576Y13538D01*
G01X7560Y13608D01*
G01X7542Y13683D01*
G01X7520Y13764D01*
G01X7496Y13851D01*
G01X7469Y13944D01*
G01X7439Y14044D01*
G01X7384Y14227D01*
G01X7362Y14303D01*
G01X7320Y14457D01*
G01X7300Y14532D01*
G01X7281Y14607D01*
G01X7263Y14680D01*
G01X7247Y14752D01*
G01X7231Y14822D01*
G01X7216Y14889D01*
G01X7203Y14954D01*
G01X7191Y15016D01*
G01X7181Y15075D01*
G01X7171Y15130D01*
G01X7164Y15182D01*
G01X7158Y15229D01*
G01X7154Y15272D01*
G01X7151Y15309D01*
G01X7150Y15342D01*
G01X7152Y15369D01*
G01X7156Y15433D01*
G01X7160Y15502D01*
G01X7162Y15574D01*
G01X7163Y15645D01*
G01X7163Y15716D01*
G01X7162Y15783D01*
G01X7160Y15844D01*
G01X7156Y15896D01*
G01X7151Y15943D01*
G01X7145Y15983D01*
G01X7137Y16018D01*
G01X7126Y16046D01*
G01X7113Y16069D01*
G01X7094Y16086D01*
G01X7071Y16098D01*
G01X7043Y16103D01*
G37*
G36*
G01X9647Y16892D02*
G01X9599Y16892D01*
G01X9548Y16889D01*
G01X9493Y16882D01*
G01X9435Y16872D01*
G01X9373Y16858D01*
G01X9308Y16842D01*
G01X9239Y16821D01*
G01X9167Y16798D01*
G01X9091Y16770D01*
G01X9019Y16741D01*
G01X8955Y16710D01*
G01X8899Y16676D01*
G01X8851Y16641D01*
G01X8812Y16603D01*
G01X8781Y16564D01*
G01X8758Y16523D01*
G01X8743Y16481D01*
G01X8737Y16436D01*
G01X8739Y16390D01*
G01X8749Y16342D01*
G01X8768Y16293D01*
G01X8795Y16242D01*
G01X8830Y16189D01*
G01X8873Y16136D01*
G01X8925Y16080D01*
G01X8965Y16036D01*
G01X9002Y15987D01*
G01X9036Y15934D01*
G01X9065Y15879D01*
G01X9090Y15824D01*
G01X9108Y15770D01*
G01X9120Y15720D01*
G01X9124Y15674D01*
G01X9108Y15593D01*
G01X9065Y15527D01*
G01X9002Y15482D01*
G01X8925Y15466D01*
G01X8879Y15469D01*
G01X8840Y15477D01*
G01X8805Y15491D01*
G01X8777Y15513D01*
G01X8753Y15542D01*
G01X8734Y15579D01*
G01X8719Y15624D01*
G01X8710Y15678D01*
G01X8704Y15742D01*
G01X8703Y15816D01*
G01X8705Y15900D01*
G01X8710Y15995D01*
G01X8713Y16059D01*
G01X8713Y16119D01*
G01X8708Y16173D01*
G01X8700Y16222D01*
G01X8687Y16267D01*
G01X8670Y16307D01*
G01X8649Y16343D01*
G01X8624Y16373D01*
G01X8594Y16400D01*
G01X8560Y16421D01*
G01X8521Y16438D01*
G01X8477Y16451D01*
G01X8429Y16459D01*
G01X8375Y16463D01*
G01X8317Y16463D01*
G01X8255Y16458D01*
G01X8186Y16449D01*
G01X8113Y16436D01*
G01X8034Y16419D01*
G01X7950Y16397D01*
G01X7881Y16377D01*
G01X7816Y16355D01*
G01X7755Y16330D01*
G01X7698Y16304D01*
G01X7646Y16276D01*
G01X7598Y16246D01*
G01X7554Y16215D01*
G01X7516Y16183D01*
G01X7481Y16149D01*
G01X7452Y16115D01*
G01X7427Y16081D01*
G01X7408Y16045D01*
G01X7392Y16009D01*
G01X7383Y15974D01*
G01X7378Y15937D01*
G01X7379Y15901D01*
G01X7385Y15866D01*
G01X7396Y15830D01*
G01X7412Y15796D01*
G01X7435Y15762D01*
G01X7463Y15729D01*
G01X7496Y15697D01*
G01X7535Y15667D01*
G01X7580Y15638D01*
G01X7604Y15621D01*
G01X7628Y15596D01*
G01X7654Y15563D01*
G01X7681Y15524D01*
G01X7709Y15479D01*
G01X7737Y15428D01*
G01X7767Y15372D01*
G01X7796Y15312D01*
G01X7826Y15247D01*
G01X7856Y15179D01*
G01X7885Y15107D01*
G01X7914Y15033D01*
G01X7943Y14958D01*
G01X7971Y14880D01*
G01X7997Y14802D01*
G01X8023Y14723D01*
G01X8047Y14645D01*
G01X8070Y14566D01*
G01X8091Y14490D01*
G01X8111Y14414D01*
G01X8129Y14341D01*
G01X8143Y14271D01*
G01X8156Y14204D01*
G01X8167Y14140D01*
G01X8174Y14081D01*
G01X8178Y14026D01*
G01X8180Y13978D01*
G01X8178Y13934D01*
G01X8173Y13879D01*
G01X8170Y13818D01*
G01X8168Y13754D01*
G01X8167Y13688D01*
G01X8167Y13624D01*
G01X8169Y13563D01*
G01X8171Y13506D01*
G01X8175Y13455D01*
G01X8196Y13232D01*
G01X8759Y13394D01*
G01X8834Y13418D01*
G01X8904Y13443D01*
G01X8970Y13471D01*
G01X9031Y13500D01*
G01X9088Y13530D01*
G01X9139Y13563D01*
G01X9186Y13597D01*
G01X9228Y13632D01*
G01X9266Y13668D01*
G01X9298Y13705D01*
G01X9326Y13743D01*
G01X9348Y13783D01*
G01X9365Y13823D01*
G01X9377Y13863D01*
G01X9384Y13903D01*
G01X9385Y13945D01*
G01X9381Y13986D01*
G01X9372Y14027D01*
G01X9356Y14069D01*
G01X9336Y14110D01*
G01X9310Y14150D01*
G01X9278Y14190D01*
G01X9240Y14230D01*
G01X9196Y14269D01*
G01X9148Y14314D01*
G01X9105Y14360D01*
G01X9070Y14407D01*
G01X9042Y14455D01*
G01X9020Y14501D01*
G01X9005Y14547D01*
G01X8998Y14591D01*
G01X8996Y14632D01*
G01X9002Y14670D01*
G01X9013Y14703D01*
G01X9032Y14732D01*
G01X9058Y14755D01*
G01X9089Y14772D01*
G01X9128Y14782D01*
G01X9172Y14784D01*
G01X9223Y14778D01*
G01X9270Y14764D01*
G01X9315Y14740D01*
G01X9356Y14708D01*
G01X9393Y14669D01*
G01X9424Y14625D01*
G01X9449Y14576D01*
G01X9466Y14524D01*
G01X9474Y14470D01*
G01X9478Y14413D01*
G01X9483Y14351D01*
G01X9487Y14284D01*
G01X9492Y14217D01*
G01X9496Y14151D01*
G01X9501Y14087D01*
G01X9504Y14028D01*
G01X9507Y13977D01*
G01X9512Y13930D01*
G01X9520Y13889D01*
G01X9532Y13853D01*
G01X9549Y13823D01*
G01X9571Y13799D01*
G01X9599Y13780D01*
G01X9634Y13767D01*
G01X9675Y13759D01*
G01X9724Y13756D01*
G01X9782Y13759D01*
G01X9848Y13766D01*
G01X9923Y13779D01*
G01X10009Y13797D01*
G01X10105Y13819D01*
G01X10212Y13847D01*
G01X10331Y13879D01*
G01X10428Y13907D01*
G01X10510Y13933D01*
G01X10579Y13960D01*
G01X10635Y13987D01*
G01X10681Y14015D01*
G01X10715Y14046D01*
G01X10740Y14081D01*
G01X10755Y14120D01*
G01X10764Y14165D01*
G01X10764Y14216D01*
G01X10758Y14275D01*
G01X10747Y14342D01*
G01X10731Y14408D01*
G01X10710Y14470D01*
G01X10684Y14526D01*
G01X10656Y14575D01*
G01X10624Y14615D01*
G01X10592Y14646D01*
G01X10558Y14665D01*
G01X10525Y14672D01*
G01X10508Y14675D01*
G01X10490Y14685D01*
G01X10471Y14701D01*
G01X10452Y14723D01*
G01X10432Y14751D01*
G01X10411Y14784D01*
G01X10390Y14822D01*
G01X10368Y14865D01*
G01X10346Y14911D01*
G01X10324Y14962D01*
G01X10302Y15017D01*
G01X10280Y15075D01*
G01X10258Y15136D01*
G01X10237Y15200D01*
G01X10215Y15266D01*
G01X10194Y15334D01*
G01X10174Y15405D01*
G01X10154Y15477D01*
G01X10135Y15549D01*
G01X10116Y15623D01*
G01X10099Y15697D01*
G01X10082Y15772D01*
G01X10052Y15920D01*
G01X10039Y15993D01*
G01X10027Y16066D01*
G01X10017Y16136D01*
G01X10008Y16205D01*
G01X10001Y16272D01*
G01X9995Y16337D01*
G01X9992Y16399D01*
G01X9990Y16459D01*
G01X9988Y16513D01*
G01X9983Y16563D01*
G01X9976Y16610D01*
G01X9965Y16653D01*
G01X9951Y16693D01*
G01X9935Y16729D01*
G01X9916Y16761D01*
G01X9893Y16790D01*
G01X9867Y16815D01*
G01X9838Y16837D01*
G01X9807Y16855D01*
G01X9772Y16870D01*
G01X9734Y16880D01*
G01X9692Y16888D01*
G01X9647Y16892D01*
G37*

%LPD*%
G54D40*
G01X28308Y6144D02*
G01X28308Y3604D01*
G01X23228Y3604D01*
G01X23228Y6144D01*
G01X25133Y6144D01*
G54D41*
G01X28308Y6144D02*
G01X25133Y6144D01*
G54D42*
G01X34002Y34198D02*
G01X34002Y32198D01*
G01X34002Y34198D02*
G01X33832Y34198D01*
G01X33172Y34198D02*
G01X32837Y34198D01*
G01X32177Y34198D02*
G01X32002Y34198D01*
G01X32002Y34198D02*
G01X32002Y32195D01*
G01X32002Y32195D02*
G01X32177Y32195D01*
G01X32837Y32195D02*
G01X33177Y32195D01*
G01X33837Y32195D02*
G01X34002Y32195D01*
G01X34002Y32195D02*
G01X34002Y34198D01*
G54D10*
G01X55243Y8995D02*
G01X56843Y8995D01*
G01X55243Y6595D02*
G01X56843Y6595D01*
G01X53443Y8995D02*
G01X51943Y8995D01*
G01X53443Y6595D02*
G01X51943Y6595D01*
G01X56843Y8995D02*
G01X56843Y6595D01*
G01X51543Y8495D02*
G01X51543Y7095D01*
G01X51543Y8495D02*
G01X51543Y8595D01*
G01X51943Y8995D01*
G01X51543Y7095D02*
G01X51543Y6995D01*
G01X51943Y6595D01*
G01X55243Y14456D02*
G01X56843Y14456D01*
G01X55243Y12056D02*
G01X56843Y12056D01*
G01X53443Y14456D02*
G01X51943Y14456D01*
G01X53443Y12056D02*
G01X51943Y12056D01*
G01X56843Y14456D02*
G01X56843Y12056D01*
G01X51543Y13956D02*
G01X51543Y12556D01*
G01X51543Y13956D02*
G01X51543Y14056D01*
G01X51943Y14456D01*
G01X51543Y12556D02*
G01X51543Y12456D01*
G01X51943Y12056D01*
G01X43432Y14478D02*
G01X47907Y14478D01*
G01X48707Y12522D02*
G01X48707Y10433D01*
G01X42707Y12522D02*
G01X42707Y10433D01*
G01X43432Y8478D02*
G01X47981Y8478D01*
G01X43432Y7112D02*
G01X47907Y7112D01*
G01X48707Y5156D02*
G01X48707Y3067D01*
G01X42707Y5156D02*
G01X42707Y3067D01*
G01X43432Y1112D02*
G01X47981Y1112D01*
G54D40*
G01X32118Y2969D02*
G01X32118Y1064D01*
G01X34658Y1064D01*
G01X34658Y13764D01*
G01X32118Y13764D01*
G54D41*
G01X32118Y13764D02*
G01X32118Y2969D01*
G54D40*
G01X35674Y2969D02*
G01X35674Y1064D01*
G01X38214Y1064D01*
G01X38214Y13764D01*
G01X35674Y13764D01*
G54D41*
G01X35674Y13764D02*
G01X35674Y2969D01*
G54D10*
G01X55243Y3534D02*
G01X56843Y3534D01*
G01X55243Y1134D02*
G01X56843Y1134D01*
G01X53443Y3534D02*
G01X51943Y3534D01*
G01X53443Y1134D02*
G01X51943Y1134D01*
G01X56843Y3534D02*
G01X56843Y1134D01*
G01X51543Y3034D02*
G01X51543Y1634D01*
G01X51543Y3034D02*
G01X51543Y3134D01*
G01X51943Y3534D01*
G01X51543Y1634D02*
G01X51543Y1534D01*
G01X51943Y1134D01*
G01X36782Y31672D02*
G01X35582Y31672D01*
G01X36982Y33722D02*
G01X36982Y34722D01*
G01X35382Y33722D02*
G01X35382Y34722D01*
G01X36982Y32922D02*
G01X36982Y31922D01*
G01X35382Y32922D02*
G01X35382Y31922D01*
G01X36782Y34972D02*
G01X35582Y34972D01*
G01X36982Y34772D02*
G01X36982Y34722D01*
G01X35382Y34772D02*
G01X35382Y34722D01*
G01X36982Y31872D02*
G01X36982Y31922D01*
G01X35382Y31872D02*
G01X35382Y31922D01*
G54D40*
G01X28308Y11224D02*
G01X28308Y8684D01*
G01X23228Y8684D01*
G01X23228Y11224D01*
G01X25133Y11224D01*
G54D41*
G01X28308Y11224D02*
G01X25133Y11224D01*
G54D10*
G01X7788Y10287D02*
G01X13268Y10287D01*
G01X13268Y10287D02*
G01X13268Y3987D01*
G01X7788Y10287D02*
G01X7788Y3987D01*
G01X7788Y3987D02*
G01X13268Y3987D01*
G01X7788Y8745D02*
G01X13268Y8745D01*
G01X7788Y5725D02*
G01X13268Y5725D01*
G01X7788Y4517D02*
G01X13268Y4517D01*
G01X15789Y10414D02*
G01X21269Y10414D01*
G01X21269Y10414D02*
G01X21269Y4114D01*
G01X15789Y10414D02*
G01X15789Y4114D01*
G01X15789Y4114D02*
G01X21269Y4114D01*
G01X15789Y8872D02*
G01X21269Y8872D01*
G01X15789Y5852D02*
G01X21269Y5852D01*
G01X15789Y4644D02*
G01X21269Y4644D01*

%LPD*%
G36*
G01X31229Y2570D02*
G01X31046Y2570D01*
G01X31046Y1826D01*
G01X31231Y1826D01*
G01X31286Y1829D01*
G01X31335Y1837D01*
G01X31380Y1852D01*
G01X31421Y1871D01*
G01X31456Y1896D01*
G01X31487Y1926D01*
G01X31514Y1961D01*
G01X31536Y2001D01*
G01X31552Y2044D01*
G01X31565Y2092D01*
G01X31572Y2145D01*
G01X31574Y2202D01*
G01X31572Y2258D01*
G01X31565Y2310D01*
G01X31552Y2358D01*
G01X31536Y2401D01*
G01X31514Y2439D01*
G01X31487Y2473D01*
G01X31456Y2502D01*
G01X31420Y2526D01*
G01X31379Y2545D01*
G01X31334Y2559D01*
G01X31284Y2567D01*
G01X31229Y2570D01*
G37*

%LPC*%
G36*
G01X31221Y2501D02*
G01X31130Y2501D01*
G01X31130Y1894D01*
G01X31221Y1894D01*
G01X31284Y1900D01*
G01X31339Y1916D01*
G01X31385Y1942D01*
G01X31422Y1977D01*
G01X31451Y2021D01*
G01X31472Y2073D01*
G01X31484Y2134D01*
G01X31488Y2202D01*
G01X31484Y2269D01*
G01X31472Y2328D01*
G01X31451Y2379D01*
G01X31422Y2422D01*
G01X31385Y2456D01*
G01X31339Y2481D01*
G01X31284Y2496D01*
G01X31221Y2501D01*
G37*

%LPD*%
G36*
G01X30719Y2576D02*
G01X30655Y2583D01*
G01X30563Y2568D01*
G01X30491Y2528D01*
G01X30443Y2467D01*
G01X30426Y2390D01*
G01X30440Y2318D01*
G01X30475Y2265D01*
G01X30524Y2227D01*
G01X30576Y2199D01*
G01X30685Y2151D01*
G01X30735Y2128D01*
G01X30776Y2101D01*
G01X30803Y2065D01*
G01X30812Y2014D01*
G01X30801Y1962D01*
G01X30768Y1922D01*
G01X30716Y1896D01*
G01X30647Y1887D01*
G01X30589Y1893D01*
G01X30533Y1912D01*
G01X30483Y1942D01*
G01X30439Y1981D01*
G01X30388Y1922D01*
G01X30440Y1878D01*
G01X30501Y1843D01*
G01X30570Y1821D01*
G01X30647Y1813D01*
G01X30701Y1817D01*
G01X30750Y1829D01*
G01X30793Y1848D01*
G01X30829Y1874D01*
G01X30857Y1904D01*
G01X30879Y1940D01*
G01X30891Y1979D01*
G01X30896Y2021D01*
G01X30884Y2093D01*
G01X30851Y2147D01*
G01X30802Y2188D01*
G01X30741Y2219D01*
G01X30634Y2265D01*
G01X30591Y2286D01*
G01X30551Y2311D01*
G01X30522Y2346D01*
G01X30510Y2395D01*
G01X30521Y2442D01*
G01X30550Y2479D01*
G01X30596Y2501D01*
G01X30655Y2509D01*
G01X30706Y2504D01*
G01X30751Y2490D01*
G01X30791Y2467D01*
G01X30827Y2438D01*
G01X30871Y2491D01*
G01X30828Y2528D01*
G01X30777Y2557D01*
G01X30719Y2576D01*
G37*

%LPD*%

%LPD*%
G36*
G01X31391Y5115D02*
G01X31328Y5123D01*
G01X31260Y5116D01*
G01X31197Y5096D01*
G01X31141Y5063D01*
G01X31094Y5019D01*
G01X31055Y4964D01*
G01X31025Y4898D01*
G01X31007Y4822D01*
G01X31000Y4737D01*
G01X31006Y4652D01*
G01X31025Y4576D01*
G01X31053Y4511D01*
G01X31092Y4455D01*
G01X31138Y4411D01*
G01X31193Y4379D01*
G01X31254Y4360D01*
G01X31320Y4353D01*
G01X31388Y4360D01*
G01X31449Y4380D01*
G01X31502Y4414D01*
G01X31549Y4460D01*
G01X31501Y4513D01*
G01X31463Y4476D01*
G01X31421Y4449D01*
G01X31376Y4432D01*
G01X31325Y4427D01*
G01X31273Y4432D01*
G01X31226Y4449D01*
G01X31185Y4475D01*
G01X31151Y4512D01*
G01X31123Y4557D01*
G01X31103Y4610D01*
G01X31091Y4671D01*
G01X31087Y4739D01*
G01X31091Y4807D01*
G01X31104Y4868D01*
G01X31125Y4921D01*
G01X31153Y4966D01*
G01X31188Y5001D01*
G01X31229Y5027D01*
G01X31276Y5043D01*
G01X31328Y5049D01*
G01X31375Y5044D01*
G01X31416Y5030D01*
G01X31452Y5007D01*
G01X31483Y4978D01*
G01X31529Y5031D01*
G01X31492Y5066D01*
G01X31446Y5095D01*
G01X31391Y5115D01*
G37*

%LPD*%
G36*
G01X30719Y5116D02*
G01X30655Y5123D01*
G01X30563Y5108D01*
G01X30491Y5068D01*
G01X30443Y5007D01*
G01X30426Y4930D01*
G01X30440Y4858D01*
G01X30475Y4805D01*
G01X30524Y4767D01*
G01X30576Y4739D01*
G01X30685Y4691D01*
G01X30735Y4668D01*
G01X30776Y4641D01*
G01X30803Y4605D01*
G01X30812Y4554D01*
G01X30801Y4502D01*
G01X30768Y4462D01*
G01X30716Y4436D01*
G01X30647Y4427D01*
G01X30589Y4433D01*
G01X30533Y4452D01*
G01X30483Y4482D01*
G01X30439Y4521D01*
G01X30388Y4462D01*
G01X30440Y4418D01*
G01X30501Y4383D01*
G01X30570Y4361D01*
G01X30647Y4353D01*
G01X30701Y4357D01*
G01X30750Y4369D01*
G01X30793Y4388D01*
G01X30829Y4414D01*
G01X30857Y4444D01*
G01X30879Y4480D01*
G01X30891Y4519D01*
G01X30896Y4561D01*
G01X30884Y4633D01*
G01X30851Y4687D01*
G01X30802Y4728D01*
G01X30741Y4759D01*
G01X30634Y4805D01*
G01X30591Y4826D01*
G01X30551Y4851D01*
G01X30522Y4886D01*
G01X30510Y4935D01*
G01X30521Y4982D01*
G01X30550Y5019D01*
G01X30596Y5041D01*
G01X30655Y5049D01*
G01X30706Y5044D01*
G01X30751Y5030D01*
G01X30791Y5007D01*
G01X30827Y4978D01*
G01X30871Y5031D01*
G01X30828Y5068D01*
G01X30777Y5097D01*
G01X30719Y5116D01*
G37*

%LPD*%

%LPD*%
G36*
G01X31163Y7650D02*
G01X30980Y7650D01*
G01X30980Y6906D01*
G01X31165Y6906D01*
G01X31220Y6909D01*
G01X31269Y6917D01*
G01X31314Y6932D01*
G01X31355Y6951D01*
G01X31390Y6976D01*
G01X31421Y7006D01*
G01X31448Y7041D01*
G01X31470Y7081D01*
G01X31486Y7124D01*
G01X31499Y7172D01*
G01X31506Y7225D01*
G01X31508Y7282D01*
G01X31506Y7338D01*
G01X31499Y7390D01*
G01X31486Y7438D01*
G01X31470Y7481D01*
G01X31448Y7519D01*
G01X31421Y7553D01*
G01X31390Y7582D01*
G01X31354Y7606D01*
G01X31313Y7625D01*
G01X31268Y7639D01*
G01X31218Y7647D01*
G01X31163Y7650D01*
G37*

%LPC*%
G36*
G01X31155Y7581D02*
G01X31064Y7581D01*
G01X31064Y6974D01*
G01X31155Y6974D01*
G01X31218Y6980D01*
G01X31273Y6996D01*
G01X31319Y7022D01*
G01X31356Y7057D01*
G01X31385Y7101D01*
G01X31406Y7153D01*
G01X31418Y7214D01*
G01X31422Y7282D01*
G01X31418Y7349D01*
G01X31406Y7408D01*
G01X31385Y7459D01*
G01X31356Y7502D01*
G01X31319Y7536D01*
G01X31273Y7561D01*
G01X31218Y7576D01*
G01X31155Y7581D01*
G37*

%LPD*%
G36*
G01X30335Y7650D02*
G01X30248Y7650D01*
G01X30248Y6906D01*
G01X30330Y6906D01*
G01X30330Y7312D01*
G01X30329Y7371D01*
G01X30326Y7427D01*
G01X30322Y7484D01*
G01X30319Y7541D01*
G01X30325Y7541D01*
G01X30406Y7388D01*
G01X30685Y6906D01*
G01X30772Y6906D01*
G01X30772Y7650D01*
G01X30690Y7650D01*
G01X30690Y7246D01*
G01X30692Y7188D01*
G01X30695Y7130D01*
G01X30699Y7071D01*
G01X30703Y7015D01*
G01X30698Y7015D01*
G01X30617Y7167D01*
G01X30335Y7650D01*
G37*

%LPD*%
G36*
G01X29918Y7655D02*
G01X29847Y7663D01*
G01X29799Y7660D01*
G01X29754Y7650D01*
G01X29712Y7636D01*
G01X29673Y7615D01*
G01X29638Y7590D01*
G01X29606Y7559D01*
G01X29578Y7523D01*
G01X29555Y7483D01*
G01X29537Y7438D01*
G01X29523Y7388D01*
G01X29515Y7335D01*
G01X29512Y7277D01*
G01X29518Y7192D01*
G01X29536Y7116D01*
G01X29565Y7051D01*
G01X29605Y6995D01*
G01X29652Y6951D01*
G01X29709Y6919D01*
G01X29772Y6900D01*
G01X29842Y6893D01*
G01X29913Y6899D01*
G01X29976Y6917D01*
G01X30028Y6943D01*
G01X30071Y6977D01*
G01X30071Y7287D01*
G01X29829Y7287D01*
G01X29829Y7216D01*
G01X29992Y7216D01*
G01X29992Y7012D01*
G01X29964Y6994D01*
G01X29930Y6979D01*
G01X29891Y6970D01*
G01X29850Y6967D01*
G01X29793Y6972D01*
G01X29743Y6989D01*
G01X29700Y7015D01*
G01X29664Y7052D01*
G01X29636Y7097D01*
G01X29615Y7150D01*
G01X29602Y7211D01*
G01X29598Y7279D01*
G01X29603Y7347D01*
G01X29615Y7408D01*
G01X29637Y7461D01*
G01X29666Y7506D01*
G01X29702Y7541D01*
G01X29745Y7567D01*
G01X29794Y7583D01*
G01X29850Y7589D01*
G01X29903Y7583D01*
G01X29948Y7568D01*
G01X29984Y7545D01*
G01X30015Y7518D01*
G01X30060Y7571D01*
G01X30023Y7605D01*
G01X29977Y7634D01*
G01X29918Y7655D01*
G37*

%LPD*%

%LPD*%
G36*
G01X30490Y10248D02*
G01X30403Y10248D01*
G01X30604Y9700D01*
G01X30700Y9700D01*
G01X30896Y10248D01*
G01X30815Y10248D01*
G01X30706Y9928D01*
G01X30680Y9848D01*
G01X30667Y9807D01*
G01X30655Y9768D01*
G01X30650Y9768D01*
G01X30636Y9807D01*
G01X30623Y9848D01*
G01X30599Y9928D01*
G01X30490Y10248D01*
G37*

%LPD*%
G36*
G01X31257Y10444D02*
G01X31173Y10457D01*
G01X31112Y10450D01*
G01X31058Y10432D01*
G01X31010Y10404D01*
G01X30967Y10370D01*
G01X31013Y10314D01*
G01X31046Y10344D01*
G01X31083Y10368D01*
G01X31124Y10384D01*
G01X31168Y10391D01*
G01X31223Y10380D01*
G01X31264Y10355D01*
G01X31291Y10316D01*
G01X31300Y10266D01*
G01X31289Y10208D01*
G01X31253Y10161D01*
G01X31188Y10130D01*
G01X31089Y10119D01*
G01X31089Y10055D01*
G01X31199Y10044D01*
G01X31272Y10012D01*
G01X31313Y9963D01*
G01X31325Y9900D01*
G01X31314Y9840D01*
G01X31281Y9795D01*
G01X31232Y9766D01*
G01X31170Y9756D01*
G01X31109Y9763D01*
G01X31059Y9782D01*
G01X31017Y9809D01*
G01X30982Y9842D01*
G01X30939Y9789D01*
G01X30980Y9750D01*
G01X31032Y9718D01*
G01X31096Y9695D01*
G01X31175Y9687D01*
G01X31223Y9691D01*
G01X31266Y9701D01*
G01X31307Y9719D01*
G01X31341Y9743D01*
G01X31370Y9773D01*
G01X31391Y9809D01*
G01X31405Y9851D01*
G01X31409Y9898D01*
G01X31396Y9967D01*
G01X31362Y10023D01*
G01X31312Y10065D01*
G01X31249Y10088D01*
G01X31249Y10091D01*
G01X31304Y10119D01*
G01X31347Y10158D01*
G01X31374Y10210D01*
G01X31384Y10274D01*
G01X31368Y10352D01*
G01X31324Y10409D01*
G01X31257Y10444D01*
G37*

%LPD*%
G36*
G01X30180Y10444D02*
G01X30096Y10457D01*
G01X30035Y10450D01*
G01X29981Y10432D01*
G01X29933Y10404D01*
G01X29890Y10370D01*
G01X29936Y10314D01*
G01X29969Y10344D01*
G01X30006Y10368D01*
G01X30047Y10384D01*
G01X30091Y10391D01*
G01X30146Y10380D01*
G01X30187Y10355D01*
G01X30214Y10316D01*
G01X30223Y10266D01*
G01X30212Y10208D01*
G01X30176Y10161D01*
G01X30111Y10130D01*
G01X30012Y10119D01*
G01X30012Y10055D01*
G01X30122Y10044D01*
G01X30195Y10012D01*
G01X30236Y9963D01*
G01X30248Y9900D01*
G01X30237Y9840D01*
G01X30204Y9795D01*
G01X30155Y9766D01*
G01X30093Y9756D01*
G01X30032Y9763D01*
G01X29982Y9782D01*
G01X29941Y9809D01*
G01X29905Y9842D01*
G01X29862Y9789D01*
G01X29903Y9750D01*
G01X29955Y9718D01*
G01X30019Y9695D01*
G01X30099Y9687D01*
G01X30146Y9691D01*
G01X30189Y9701D01*
G01X30230Y9719D01*
G01X30264Y9743D01*
G01X30293Y9773D01*
G01X30314Y9809D01*
G01X30328Y9851D01*
G01X30332Y9898D01*
G01X30319Y9967D01*
G01X30285Y10023D01*
G01X30235Y10065D01*
G01X30172Y10088D01*
G01X30172Y10091D01*
G01X30228Y10119D01*
G01X30270Y10158D01*
G01X30297Y10210D01*
G01X30307Y10274D01*
G01X30291Y10352D01*
G01X30247Y10409D01*
G01X30180Y10444D01*
G37*

%LPD*%

%LPD*%
G36*
G01X31115Y12857D02*
G01X31026Y12857D01*
G01X31264Y12113D01*
G01X31361Y12113D01*
G01X31600Y12857D01*
G01X31513Y12857D01*
G01X31391Y12446D01*
G01X31372Y12382D01*
G01X31355Y12323D01*
G01X31337Y12263D01*
G01X31318Y12199D01*
G01X31313Y12199D01*
G01X31293Y12263D01*
G01X31276Y12323D01*
G01X31258Y12382D01*
G01X31239Y12446D01*
G01X31115Y12857D01*
G37*

%LPD*%
G36*
G01X30934Y12857D02*
G01X30579Y12857D01*
G01X30556Y12512D01*
G01X30601Y12484D01*
G01X30632Y12502D01*
G01X30661Y12516D01*
G01X30691Y12524D01*
G01X30726Y12527D01*
G01X30791Y12515D01*
G01X30842Y12480D01*
G01X30875Y12425D01*
G01X30886Y12352D01*
G01X30873Y12276D01*
G01X30838Y12218D01*
G01X30786Y12181D01*
G01X30723Y12169D01*
G01X30662Y12176D01*
G01X30613Y12195D01*
G01X30571Y12221D01*
G01X30538Y12252D01*
G01X30495Y12199D01*
G01X30537Y12162D01*
G01X30588Y12131D01*
G01X30652Y12108D01*
G01X30731Y12100D01*
G01X30776Y12104D01*
G01X30820Y12117D01*
G01X30860Y12138D01*
G01X30896Y12166D01*
G01X30927Y12202D01*
G01X30949Y12246D01*
G01X30965Y12297D01*
G01X30970Y12354D01*
G01X30965Y12411D01*
G01X30952Y12461D01*
G01X30932Y12501D01*
G01X30905Y12534D01*
G01X30872Y12559D01*
G01X30834Y12577D01*
G01X30791Y12587D01*
G01X30746Y12590D01*
G01X30714Y12588D01*
G01X30684Y12583D01*
G01X30657Y12573D01*
G01X30632Y12560D01*
G01X30652Y12786D01*
G01X30934Y12786D01*
G01X30934Y12857D01*
G37*

%LPD*%

%LPD*%
G36*
G01X40205Y11968D02*
G01X40142Y11968D01*
G01X40111Y11952D01*
G01X40076Y11938D01*
G01X40037Y11926D01*
G01X39992Y11917D01*
G01X39992Y11864D01*
G01X40121Y11864D01*
G01X40121Y11292D01*
G01X39956Y11292D01*
G01X39956Y11224D01*
G01X40355Y11224D01*
G01X40355Y11292D01*
G01X40205Y11292D01*
G01X40205Y11968D01*
G37*

%LPD*%

%LPD*%
G36*
G01X40295Y4611D02*
G01X40248Y4615D01*
G01X40185Y4607D01*
G01X40129Y4585D01*
G01X40079Y4550D01*
G01X40032Y4505D01*
G01X40081Y4460D01*
G01X40115Y4494D01*
G01X40153Y4522D01*
G01X40195Y4542D01*
G01X40241Y4549D01*
G01X40303Y4537D01*
G01X40347Y4505D01*
G01X40372Y4455D01*
G01X40380Y4394D01*
G01X40375Y4344D01*
G01X40360Y4292D01*
G01X40335Y4238D01*
G01X40299Y4180D01*
G01X40251Y4118D01*
G01X40192Y4053D01*
G01X40121Y3983D01*
G01X40038Y3909D01*
G01X40038Y3858D01*
G01X40497Y3858D01*
G01X40497Y3929D01*
G01X40284Y3929D01*
G01X40224Y3927D01*
G01X40193Y3926D01*
G01X40162Y3924D01*
G01X40227Y3987D01*
G01X40286Y4048D01*
G01X40337Y4109D01*
G01X40380Y4168D01*
G01X40415Y4226D01*
G01X40441Y4283D01*
G01X40456Y4340D01*
G01X40462Y4396D01*
G01X40458Y4444D01*
G01X40447Y4486D01*
G01X40429Y4523D01*
G01X40405Y4555D01*
G01X40374Y4580D01*
G01X40337Y4599D01*
G01X40295Y4611D01*
G37*

%LPD*%
G54D40*
G01X12814Y18219D02*
G01X12814Y17249D01*
G01X12814Y18219D02*
G01X13230Y18219D01*
G01X13368Y18171D01*
G01X13413Y18125D01*
G01X13462Y18034D01*
G01X13462Y17894D01*
G01X13413Y17802D01*
G01X13368Y17757D01*
G01X13230Y17711D01*
G01X12814Y17711D01*
G01X13766Y17894D02*
G01X13766Y17249D01*
G01X13766Y17617D02*
G01X13812Y17757D01*
G01X13903Y17848D01*
G01X13995Y17894D01*
G01X14135Y17894D01*
G01X14671Y17894D02*
G01X14579Y17848D01*
G01X14485Y17757D01*
G01X14439Y17617D01*
G01X14439Y17526D01*
G01X14485Y17386D01*
G01X14579Y17294D01*
G01X14671Y17249D01*
G01X14808Y17249D01*
G01X14902Y17294D01*
G01X14993Y17386D01*
G01X15039Y17526D01*
G01X15039Y17617D01*
G01X14993Y17757D01*
G01X14902Y17848D01*
G01X14808Y17894D01*
G01X14671Y17894D01*
G01X15483Y18219D02*
G01X15483Y17434D01*
G01X15529Y17294D01*
G01X15621Y17249D01*
G01X15714Y17249D01*
G01X15344Y17894D02*
G01X15669Y17894D01*
G01X16250Y17894D02*
G01X16156Y17848D01*
G01X16065Y17757D01*
G01X16019Y17617D01*
G01X16019Y17526D01*
G01X16065Y17386D01*
G01X16156Y17294D01*
G01X16250Y17249D01*
G01X16388Y17249D01*
G01X16482Y17294D01*
G01X16573Y17386D01*
G01X16619Y17526D01*
G01X16619Y17617D01*
G01X16573Y17757D01*
G01X16482Y17848D01*
G01X16388Y17894D01*
G01X16250Y17894D01*
G01X17063Y18219D02*
G01X17063Y17434D01*
G01X17109Y17294D01*
G01X17200Y17249D01*
G01X17294Y17249D01*
G01X16924Y17894D02*
G01X17246Y17894D01*
G01X17645Y17894D02*
G01X17922Y17249D01*
G01X18199Y17894D02*
G01X17922Y17249D01*
G01X17830Y17063D01*
G01X17736Y16972D01*
G01X17645Y16926D01*
G01X17599Y16926D01*
G01X18503Y17894D02*
G01X18503Y16926D01*
G01X18503Y17757D02*
G01X18595Y17848D01*
G01X18689Y17894D01*
G01X18826Y17894D01*
G01X18920Y17848D01*
G01X19011Y17757D01*
G01X19057Y17617D01*
G01X19057Y17526D01*
G01X19011Y17386D01*
G01X18920Y17294D01*
G01X18826Y17249D01*
G01X18689Y17249D01*
G01X18595Y17294D01*
G01X18503Y17386D01*
G01X19362Y17617D02*
G01X19916Y17617D01*
G01X19916Y17711D01*
G01X19870Y17802D01*
G01X19824Y17848D01*
G01X19733Y17894D01*
G01X19593Y17894D01*
G01X19502Y17848D01*
G01X19408Y17757D01*
G01X19362Y17617D01*
G01X19362Y17526D01*
G01X19408Y17386D01*
G01X19502Y17294D01*
G01X19593Y17249D01*
G01X19733Y17249D01*
G01X19824Y17294D01*
G01X19916Y17386D01*
G01X20932Y18219D02*
G01X20932Y17249D01*
G01X21579Y18219D02*
G01X21579Y17249D01*
G01X20932Y17757D02*
G01X21579Y17757D01*
G01X22252Y18219D02*
G01X21884Y17249D01*
G01X22252Y18219D02*
G01X22623Y17249D01*
G01X22021Y17571D02*
G01X22484Y17571D01*
G01X23251Y18219D02*
G01X23251Y17249D01*
G01X22928Y18219D02*
G01X23573Y18219D01*
G01X24960Y18219D02*
G01X24866Y18219D01*
G01X24775Y18171D01*
G01X24729Y18034D01*
G01X24729Y17249D01*
G01X24589Y17894D02*
G01X24914Y17894D01*
G01X25496Y17894D02*
G01X25402Y17848D01*
G01X25311Y17757D01*
G01X25265Y17617D01*
G01X25265Y17526D01*
G01X25311Y17386D01*
G01X25402Y17294D01*
G01X25496Y17249D01*
G01X25633Y17249D01*
G01X25727Y17294D01*
G01X25819Y17386D01*
G01X25864Y17526D01*
G01X25864Y17617D01*
G01X25819Y17757D01*
G01X25727Y17848D01*
G01X25633Y17894D01*
G01X25496Y17894D01*
G01X26169Y17894D02*
G01X26169Y17249D01*
G01X26169Y17617D02*
G01X26215Y17757D01*
G01X26309Y17848D01*
G01X26400Y17894D01*
G01X26540Y17894D01*
G01X27556Y18219D02*
G01X27556Y17249D01*
G01X27556Y18219D02*
G01X27970Y18219D01*
G01X28110Y18171D01*
G01X28155Y18125D01*
G01X28201Y18034D01*
G01X28201Y17942D01*
G01X28155Y17848D01*
G01X28110Y17802D01*
G01X27970Y17757D01*
G01X27556Y17757D01*
G01X27879Y17757D02*
G01X28201Y17249D01*
G01X28877Y18219D02*
G01X28506Y17249D01*
G01X28877Y18219D02*
G01X29245Y17249D01*
G01X28646Y17571D02*
G01X29108Y17571D01*
G01X29550Y18219D02*
G01X29550Y17249D01*
G01X30198Y18219D02*
G01X29550Y17571D01*
G01X29781Y17802D02*
G01X30198Y17249D01*
G01X30548Y17988D02*
G01X30548Y18034D01*
G01X30594Y18125D01*
G01X30640Y18171D01*
G01X30734Y18219D01*
G01X30916Y18219D01*
G01X31010Y18171D01*
G01X31056Y18125D01*
G01X31102Y18034D01*
G01X31102Y17942D01*
G01X31056Y17848D01*
G01X30962Y17711D01*
G01X30502Y17249D01*
G01X31148Y17249D01*
G01X31498Y17988D02*
G01X31498Y18034D01*
G01X31546Y18125D01*
G01X31592Y18171D01*
G01X31683Y18219D01*
G01X31869Y18219D01*
G01X31960Y18171D01*
G01X32006Y18125D01*
G01X32054Y18034D01*
G01X32054Y17942D01*
G01X32006Y17848D01*
G01X31915Y17711D01*
G01X31452Y17249D01*
G01X32100Y17249D01*
G01X32636Y18219D02*
G01X32496Y18171D01*
G01X32451Y18079D01*
G01X32451Y17988D01*
G01X32496Y17894D01*
G01X32588Y17848D01*
G01X32773Y17802D01*
G01X32913Y17757D01*
G01X33004Y17663D01*
G01X33050Y17571D01*
G01X33050Y17434D01*
G01X33004Y17340D01*
G01X32959Y17294D01*
G01X32819Y17249D01*
G01X32636Y17249D01*
G01X32496Y17294D01*
G01X32451Y17340D01*
G01X32405Y17434D01*
G01X32405Y17571D01*
G01X32451Y17663D01*
G01X32542Y17757D01*
G01X32682Y17802D01*
G01X32867Y17848D01*
G01X32959Y17894D01*
G01X33004Y17988D01*
G01X33004Y18079D01*
G01X32959Y18171D01*
G01X32819Y18219D01*
G01X32636Y18219D01*
G01X34002Y18219D02*
G01X33540Y17249D01*
G01X33355Y18219D02*
G01X34002Y18219D01*
G01X35156Y18219D02*
G01X35156Y17434D01*
G01X35204Y17294D01*
G01X35295Y17249D01*
G01X35387Y17249D01*
G01X35018Y17894D02*
G01X35341Y17894D01*
G01X35923Y17894D02*
G01X35831Y17848D01*
G01X35737Y17757D01*
G01X35692Y17617D01*
G01X35692Y17526D01*
G01X35737Y17386D01*
G01X35831Y17294D01*
G01X35923Y17249D01*
G01X36062Y17249D01*
G01X36154Y17294D01*
G01X36245Y17386D01*
G01X36294Y17526D01*
G01X36294Y17617D01*
G01X36245Y17757D01*
G01X36154Y17848D01*
G01X36062Y17894D01*
G01X35923Y17894D01*
G01X37310Y18219D02*
G01X37310Y17249D01*
G01X37310Y18219D02*
G01X37724Y18219D01*
G01X37863Y18171D01*
G01X37909Y18125D01*
G01X37955Y18034D01*
G01X37955Y17942D01*
G01X37909Y17848D01*
G01X37863Y17802D01*
G01X37724Y17757D01*
G01X37310Y17757D01*
G01X37632Y17757D02*
G01X37955Y17249D01*
G01X38813Y17894D02*
G01X38813Y17249D01*
G01X38813Y17757D02*
G01X38722Y17848D01*
G01X38630Y17894D01*
G01X38491Y17894D01*
G01X38399Y17848D01*
G01X38305Y17757D01*
G01X38260Y17617D01*
G01X38260Y17526D01*
G01X38305Y17386D01*
G01X38399Y17294D01*
G01X38491Y17249D01*
G01X38630Y17249D01*
G01X38722Y17294D01*
G01X38813Y17386D01*
G01X39626Y17757D02*
G01X39580Y17848D01*
G01X39443Y17894D01*
G01X39303Y17894D01*
G01X39166Y17848D01*
G01X39118Y17757D01*
G01X39166Y17663D01*
G01X39258Y17617D01*
G01X39489Y17571D01*
G01X39580Y17526D01*
G01X39626Y17434D01*
G01X39626Y17386D01*
G01X39580Y17294D01*
G01X39443Y17249D01*
G01X39303Y17249D01*
G01X39166Y17294D01*
G01X39118Y17386D01*
G01X39931Y17894D02*
G01X39931Y16926D01*
G01X39931Y17757D02*
G01X40025Y17848D01*
G01X40116Y17894D01*
G01X40256Y17894D01*
G01X40347Y17848D01*
G01X40439Y17757D01*
G01X40487Y17617D01*
G01X40487Y17526D01*
G01X40439Y17386D01*
G01X40347Y17294D01*
G01X40256Y17249D01*
G01X40116Y17249D01*
G01X40025Y17294D01*
G01X39931Y17386D01*
G01X40792Y18219D02*
G01X40792Y17249D01*
G01X40792Y17757D02*
G01X40883Y17848D01*
G01X40975Y17894D01*
G01X41114Y17894D01*
G01X41206Y17848D01*
G01X41300Y17757D01*
G01X41346Y17617D01*
G01X41346Y17526D01*
G01X41300Y17386D01*
G01X41206Y17294D01*
G01X41114Y17249D01*
G01X40975Y17249D01*
G01X40883Y17294D01*
G01X40792Y17386D01*
G01X41650Y17617D02*
G01X42204Y17617D01*
G01X42204Y17711D01*
G01X42158Y17802D01*
G01X42113Y17848D01*
G01X42019Y17894D01*
G01X41882Y17894D01*
G01X41788Y17848D01*
G01X41696Y17757D01*
G01X41650Y17617D01*
G01X41650Y17526D01*
G01X41696Y17386D01*
G01X41788Y17294D01*
G01X41882Y17249D01*
G01X42019Y17249D01*
G01X42113Y17294D01*
G01X42204Y17386D01*
G01X42509Y17894D02*
G01X42509Y17249D01*
G01X42509Y17617D02*
G01X42555Y17757D01*
G01X42646Y17848D01*
G01X42740Y17894D01*
G01X42877Y17894D01*
G01X43182Y17894D02*
G01X43182Y17249D01*
G01X43182Y17617D02*
G01X43230Y17757D01*
G01X43322Y17848D01*
G01X43413Y17894D01*
G01X43553Y17894D01*
G01X43903Y17894D02*
G01X44180Y17249D01*
G01X44457Y17894D02*
G01X44180Y17249D01*
G01X44089Y17063D01*
G01X43995Y16972D01*
G01X43903Y16926D01*
G01X43858Y16926D01*
G01X45473Y18219D02*
G01X45473Y17249D01*
G01X45473Y18219D02*
G01X45890Y18219D01*
G01X46027Y18171D01*
G01X46075Y18125D01*
G01X46121Y18034D01*
G01X46121Y17894D01*
G01X46075Y17802D01*
G01X46027Y17757D01*
G01X45890Y17711D01*
G01X45473Y17711D01*
G01X46426Y18219D02*
G01X46471Y18171D01*
G01X46517Y18219D01*
G01X46471Y18265D01*
G01X46426Y18219D01*
G01X46471Y17894D02*
G01X46471Y17249D01*
G01X12814Y16822D02*
G01X12814Y15852D01*
G01X12814Y16314D02*
G01X12954Y16451D01*
G01X13045Y16497D01*
G01X13182Y16497D01*
G01X13276Y16451D01*
G01X13322Y16314D01*
G01X13322Y15852D01*
G01X13766Y16822D02*
G01X13766Y16037D01*
G01X13812Y15897D01*
G01X13903Y15852D01*
G01X13995Y15852D01*
G01X13627Y16497D02*
G01X13949Y16497D01*
G01X14439Y16822D02*
G01X14439Y16037D01*
G01X14485Y15897D01*
G01X14579Y15852D01*
G01X14671Y15852D01*
G01X14300Y16497D02*
G01X14625Y16497D01*
G01X14975Y16497D02*
G01X14975Y15529D01*
G01X14975Y16360D02*
G01X15067Y16451D01*
G01X15161Y16497D01*
G01X15298Y16497D01*
G01X15392Y16451D01*
G01X15483Y16360D01*
G01X15529Y16220D01*
G01X15529Y16129D01*
G01X15483Y15989D01*
G01X15392Y15897D01*
G01X15298Y15852D01*
G01X15161Y15852D01*
G01X15067Y15897D01*
G01X14975Y15989D01*
G01X16342Y16360D02*
G01X16296Y16451D01*
G01X16156Y16497D01*
G01X16019Y16497D01*
G01X15880Y16451D01*
G01X15834Y16360D01*
G01X15880Y16266D01*
G01X15974Y16220D01*
G01X16205Y16174D01*
G01X16296Y16129D01*
G01X16342Y16037D01*
G01X16342Y15989D01*
G01X16296Y15897D01*
G01X16156Y15852D01*
G01X16019Y15852D01*
G01X15880Y15897D01*
G01X15834Y15989D01*
G01X16692Y16405D02*
G01X16647Y16360D01*
G01X16692Y16314D01*
G01X16738Y16360D01*
G01X16692Y16405D01*
G01X16692Y16083D02*
G01X16647Y16037D01*
G01X16692Y15989D01*
G01X16738Y16037D01*
G01X16692Y16083D01*
G01X17876Y17005D02*
G01X17043Y15529D01*
G01X19011Y17005D02*
G01X18181Y15529D01*
G01X19870Y16497D02*
G01X19870Y15758D01*
G01X19824Y15621D01*
G01X19778Y15575D01*
G01X19685Y15529D01*
G01X19547Y15529D01*
G01X19456Y15575D01*
G01X19870Y16360D02*
G01X19778Y16451D01*
G01X19685Y16497D01*
G01X19547Y16497D01*
G01X19456Y16451D01*
G01X19362Y16360D01*
G01X19316Y16220D01*
G01X19316Y16129D01*
G01X19362Y15989D01*
G01X19456Y15897D01*
G01X19547Y15852D01*
G01X19685Y15852D01*
G01X19778Y15897D01*
G01X19870Y15989D01*
G01X20175Y16822D02*
G01X20220Y16774D01*
G01X20269Y16822D01*
G01X20220Y16868D01*
G01X20175Y16822D01*
G01X20220Y16497D02*
G01X20220Y15852D01*
G01X20711Y16822D02*
G01X20711Y16037D01*
G01X20756Y15897D01*
G01X20850Y15852D01*
G01X20942Y15852D01*
G01X20574Y16497D02*
G01X20896Y16497D01*
G01X21247Y16822D02*
G01X21247Y15852D01*
G01X21247Y16314D02*
G01X21386Y16451D01*
G01X21478Y16497D01*
G01X21615Y16497D01*
G01X21709Y16451D01*
G01X21755Y16314D01*
G01X21755Y15852D01*
G01X22059Y16497D02*
G01X22059Y16037D01*
G01X22105Y15897D01*
G01X22199Y15852D01*
G01X22336Y15852D01*
G01X22428Y15897D01*
G01X22567Y16037D01*
G01X22567Y16497D02*
G01X22567Y15852D01*
G01X22872Y16822D02*
G01X22872Y15852D01*
G01X22872Y16360D02*
G01X22964Y16451D01*
G01X23058Y16497D01*
G01X23195Y16497D01*
G01X23289Y16451D01*
G01X23380Y16360D01*
G01X23426Y16220D01*
G01X23426Y16129D01*
G01X23380Y15989D01*
G01X23289Y15897D01*
G01X23195Y15852D01*
G01X23058Y15852D01*
G01X22964Y15897D01*
G01X22872Y15989D01*
G01X23776Y16083D02*
G01X23731Y16037D01*
G01X23776Y15989D01*
G01X23825Y16037D01*
G01X23776Y16083D01*
G01X24683Y16360D02*
G01X24589Y16451D01*
G01X24498Y16497D01*
G01X24358Y16497D01*
G01X24267Y16451D01*
G01X24175Y16360D01*
G01X24130Y16220D01*
G01X24130Y16129D01*
G01X24175Y15989D01*
G01X24267Y15897D01*
G01X24358Y15852D01*
G01X24498Y15852D01*
G01X24589Y15897D01*
G01X24683Y15989D01*
G01X25219Y16497D02*
G01X25125Y16451D01*
G01X25034Y16360D01*
G01X24988Y16220D01*
G01X24988Y16129D01*
G01X25034Y15989D01*
G01X25125Y15897D01*
G01X25219Y15852D01*
G01X25356Y15852D01*
G01X25450Y15897D01*
G01X25542Y15989D01*
G01X25587Y16129D01*
G01X25587Y16220D01*
G01X25542Y16360D01*
G01X25450Y16451D01*
G01X25356Y16497D01*
G01X25219Y16497D01*
G01X25892Y16497D02*
G01X25892Y15852D01*
G01X25892Y16314D02*
G01X26032Y16451D01*
G01X26123Y16497D01*
G01X26263Y16497D01*
G01X26355Y16451D01*
G01X26400Y16314D01*
G01X26400Y15852D01*
G01X26400Y16314D02*
G01X26540Y16451D01*
G01X26631Y16497D01*
G01X26771Y16497D01*
G01X26863Y16451D01*
G01X26908Y16314D01*
G01X26908Y15852D01*
G01X28044Y17005D02*
G01X27213Y15529D01*
G01X28348Y16822D02*
G01X28348Y15852D01*
G01X28348Y16822D02*
G01X28996Y15852D01*
G01X28996Y16822D02*
G01X28996Y15852D01*
G01X29532Y16497D02*
G01X29438Y16451D01*
G01X29347Y16360D01*
G01X29301Y16220D01*
G01X29301Y16129D01*
G01X29347Y15989D01*
G01X29438Y15897D01*
G01X29532Y15852D01*
G01X29669Y15852D01*
G01X29763Y15897D01*
G01X29855Y15989D01*
G01X29900Y16129D01*
G01X29900Y16220D01*
G01X29855Y16360D01*
G01X29763Y16451D01*
G01X29669Y16497D01*
G01X29532Y16497D01*
G01X30205Y16497D02*
G01X30205Y15852D01*
G01X30205Y16220D02*
G01X30251Y16360D01*
G01X30345Y16451D01*
G01X30436Y16497D01*
G01X30576Y16497D01*
G01X30881Y16497D02*
G01X31064Y15852D01*
G01X31249Y16497D02*
G01X31064Y15852D01*
G01X31249Y16497D02*
G01X31435Y15852D01*
G01X31620Y16497D02*
G01X31435Y15852D01*
G01X31925Y16822D02*
G01X31970Y16774D01*
G01X32016Y16822D01*
G01X31970Y16868D01*
G01X31925Y16822D01*
G01X31970Y16497D02*
G01X31970Y15852D01*
G01X32875Y16360D02*
G01X32783Y16451D01*
G01X32689Y16497D01*
G01X32552Y16497D01*
G01X32461Y16451D01*
G01X32367Y16360D01*
G01X32321Y16220D01*
G01X32321Y16129D01*
G01X32367Y15989D01*
G01X32461Y15897D01*
G01X32552Y15852D01*
G01X32689Y15852D01*
G01X32783Y15897D01*
G01X32875Y15989D01*
G01X33180Y16822D02*
G01X33180Y15852D01*
G01X33180Y16314D02*
G01X33319Y16451D01*
G01X33411Y16497D01*
G01X33550Y16497D01*
G01X33642Y16451D01*
G01X33688Y16314D01*
G01X33688Y15852D01*
G01X33992Y16822D02*
G01X33992Y15852D01*
G01X34640Y16822D02*
G01X34640Y15852D01*
G01X33992Y16360D02*
G01X34640Y16360D01*
G01X35499Y16497D02*
G01X35499Y15852D01*
G01X35499Y16360D02*
G01X35407Y16451D01*
G01X35313Y16497D01*
G01X35176Y16497D01*
G01X35082Y16451D01*
G01X34991Y16360D01*
G01X34945Y16220D01*
G01X34945Y16129D01*
G01X34991Y15989D01*
G01X35082Y15897D01*
G01X35176Y15852D01*
G01X35313Y15852D01*
G01X35407Y15897D01*
G01X35499Y15989D01*
G01X36357Y16360D02*
G01X36266Y16451D01*
G01X36172Y16497D01*
G01X36034Y16497D01*
G01X35941Y16451D01*
G01X35849Y16360D01*
G01X35803Y16220D01*
G01X35803Y16129D01*
G01X35849Y15989D01*
G01X35941Y15897D01*
G01X36034Y15852D01*
G01X36172Y15852D01*
G01X36266Y15897D01*
G01X36357Y15989D01*
G01X36662Y16822D02*
G01X36662Y15852D01*
G01X37124Y16497D02*
G01X36662Y16037D01*
G01X36847Y16220D02*
G01X37170Y15852D01*
G01X38122Y16682D02*
G01X38028Y16774D01*
G01X37891Y16822D01*
G01X37706Y16822D01*
G01X37566Y16774D01*
G01X37475Y16682D01*
G01X37475Y16591D01*
G01X37520Y16497D01*
G01X37566Y16451D01*
G01X37660Y16405D01*
G01X37937Y16314D01*
G01X38028Y16266D01*
G01X38074Y16220D01*
G01X38122Y16129D01*
G01X38122Y15989D01*
G01X38028Y15897D01*
G01X37891Y15852D01*
G01X37706Y15852D01*
G01X37566Y15897D01*
G01X37475Y15989D01*
G01X38427Y16497D02*
G01X38427Y15529D01*
G01X38427Y16360D02*
G01X38519Y16451D01*
G01X38610Y16497D01*
G01X38750Y16497D01*
G01X38841Y16451D01*
G01X38935Y16360D01*
G01X38981Y16220D01*
G01X38981Y16129D01*
G01X38935Y15989D01*
G01X38841Y15897D01*
G01X38750Y15852D01*
G01X38610Y15852D01*
G01X38519Y15897D01*
G01X38427Y15989D01*
G01X39839Y16497D02*
G01X39839Y15852D01*
G01X39839Y16360D02*
G01X39748Y16451D01*
G01X39654Y16497D01*
G01X39517Y16497D01*
G01X39423Y16451D01*
G01X39331Y16360D01*
G01X39286Y16220D01*
G01X39286Y16129D01*
G01X39331Y15989D01*
G01X39423Y15897D01*
G01X39517Y15852D01*
G01X39654Y15852D01*
G01X39748Y15897D01*
G01X39839Y15989D01*
G01X40698Y16360D02*
G01X40606Y16451D01*
G01X40513Y16497D01*
G01X40375Y16497D01*
G01X40284Y16451D01*
G01X40190Y16360D01*
G01X40144Y16220D01*
G01X40144Y16129D01*
G01X40190Y15989D01*
G01X40284Y15897D01*
G01X40375Y15852D01*
G01X40513Y15852D01*
G01X40606Y15897D01*
G01X40698Y15989D01*
G01X41003Y16220D02*
G01X41556Y16220D01*
G01X41556Y16314D01*
G01X41511Y16405D01*
G01X41465Y16451D01*
G01X41374Y16497D01*
G01X41234Y16497D01*
G01X41142Y16451D01*
G01X41048Y16360D01*
G01X41003Y16220D01*
G01X41003Y16129D01*
G01X41048Y15989D01*
G01X41142Y15897D01*
G01X41234Y15852D01*
G01X41374Y15852D01*
G01X41465Y15897D01*
G01X41556Y15989D01*
G01X42694Y17005D02*
G01X41861Y15529D01*
G01X42999Y16822D02*
G01X42999Y15852D01*
G01X42999Y16822D02*
G01X43413Y16822D01*
G01X43553Y16774D01*
G01X43599Y16728D01*
G01X43644Y16637D01*
G01X43644Y16545D01*
G01X43599Y16451D01*
G01X43553Y16405D01*
G01X43413Y16360D01*
G01X42999Y16360D01*
G01X43322Y16360D02*
G01X43644Y15852D01*
G01X44320Y16822D02*
G01X43949Y15852D01*
G01X44320Y16822D02*
G01X44688Y15852D01*
G01X44089Y16174D02*
G01X44551Y16174D01*
G01X44993Y16822D02*
G01X44993Y15852D01*
G01X45641Y16822D02*
G01X44993Y16174D01*
G01X45224Y16405D02*
G01X45641Y15852D01*
G01X45991Y16591D02*
G01X45991Y16637D01*
G01X46037Y16728D01*
G01X46083Y16774D01*
G01X46177Y16822D01*
G01X46360Y16822D01*
G01X46454Y16774D01*
G01X46499Y16728D01*
G01X46545Y16637D01*
G01X46545Y16545D01*
G01X46499Y16451D01*
G01X46405Y16314D01*
G01X45946Y15852D01*
G01X46591Y15852D01*
G01X46941Y16591D02*
G01X46941Y16637D01*
G01X46990Y16728D01*
G01X47035Y16774D01*
G01X47127Y16822D01*
G01X47312Y16822D01*
G01X47404Y16774D01*
G01X47449Y16728D01*
G01X47498Y16637D01*
G01X47498Y16545D01*
G01X47449Y16451D01*
G01X47358Y16314D01*
G01X46896Y15852D01*
G01X47543Y15852D01*
G01X48079Y16822D02*
G01X47939Y16774D01*
G01X47894Y16682D01*
G01X47894Y16591D01*
G01X47939Y16497D01*
G01X48031Y16451D01*
G01X48216Y16405D01*
G01X48356Y16360D01*
G01X48447Y16266D01*
G01X48493Y16174D01*
G01X48493Y16037D01*
G01X48447Y15943D01*
G01X48402Y15897D01*
G01X48262Y15852D01*
G01X48079Y15852D01*
G01X47939Y15897D01*
G01X47894Y15943D01*
G01X47848Y16037D01*
G01X47848Y16174D01*
G01X47894Y16266D01*
G01X47985Y16360D01*
G01X48125Y16405D01*
G01X48310Y16451D01*
G01X48402Y16497D01*
G01X48447Y16591D01*
G01X48447Y16682D01*
G01X48402Y16774D01*
G01X48262Y16822D01*
G01X48079Y16822D01*
G01X49446Y16822D02*
G01X48983Y15852D01*
G01X48798Y16822D02*
G01X49446Y16822D01*
G01X49750Y16266D02*
G01X50581Y16266D01*
G01X50886Y16822D02*
G01X50886Y15852D01*
G01X50886Y16822D02*
G01X51302Y16822D01*
G01X51440Y16774D01*
G01X51485Y16728D01*
G01X51534Y16637D01*
G01X51534Y16545D01*
G01X51485Y16451D01*
G01X51440Y16405D01*
G01X51302Y16360D01*
G01X50886Y16360D01*
G01X51208Y16360D02*
G01X51534Y15852D01*
G01X51838Y16822D02*
G01X51838Y15852D01*
G01X51838Y16822D02*
G01X52252Y16822D01*
G01X52392Y16774D01*
G01X52438Y16728D01*
G01X52484Y16637D01*
G01X52484Y16497D01*
G01X52438Y16405D01*
G01X52392Y16360D01*
G01X52252Y16314D01*
G01X51838Y16314D01*
G01X52788Y16822D02*
G01X52834Y16774D01*
G01X52882Y16822D01*
G01X52834Y16868D01*
G01X52788Y16822D01*
G01X52834Y16497D02*
G01X52834Y15852D01*
G01X53187Y16266D02*
G01X54018Y16266D01*
G01X54322Y16822D02*
G01X54322Y15852D01*
G01X54968Y16822D02*
G01X54968Y15852D01*
G01X54322Y16360D02*
G01X54968Y16360D01*
G01X55643Y16822D02*
G01X55272Y15852D01*
G01X55643Y16822D02*
G01X56012Y15852D01*
G01X55412Y16174D02*
G01X55874Y16174D01*
G01X56642Y16822D02*
G01X56642Y15852D01*
G01X56316Y16822D02*
G01X56964Y16822D01*
G54D43*
G01X24117Y3002D02*
G01X24117Y1912D01*
G01X24117Y3002D02*
G01X24792Y3002D01*
G01X24117Y2484D02*
G01X24533Y2484D01*
G01X25552Y3002D02*
G01X25135Y1912D01*
G01X25552Y3002D02*
G01X25966Y1912D01*
G01X25290Y2275D02*
G01X25811Y2275D01*
G01X26309Y3002D02*
G01X26309Y1912D01*
G01X26309Y3002D02*
G01X27038Y1912D01*
G01X27038Y3002D02*
G01X27038Y1912D01*
G01X30612Y31508D02*
G01X30507Y31404D01*
G01X30457Y31249D01*
G01X30457Y31041D01*
G01X30507Y30886D01*
G01X30612Y30782D01*
G01X30716Y30782D01*
G01X30820Y30833D01*
G01X30873Y30886D01*
G01X30924Y30990D01*
G01X31028Y31302D01*
G01X31079Y31404D01*
G01X31132Y31457D01*
G01X31236Y31508D01*
G01X31391Y31508D01*
G01X31495Y31404D01*
G01X31546Y31249D01*
G01X31546Y31041D01*
G01X31495Y30886D01*
G01X31391Y30782D01*
G01X30457Y31851D02*
G01X31546Y31851D01*
G01X30457Y32580D02*
G01X31546Y32580D01*
G01X30975Y31851D02*
G01X30975Y32580D01*
G01X30457Y33286D02*
G01X31546Y33286D01*
G01X30457Y32923D02*
G01X30457Y33649D01*
G01X30716Y34772D02*
G01X30612Y34719D01*
G01X30507Y34617D01*
G01X30457Y34513D01*
G01X30457Y34305D01*
G01X30507Y34201D01*
G01X30612Y34096D01*
G01X30716Y34046D01*
G01X30873Y33992D01*
G01X31132Y33992D01*
G01X31287Y34046D01*
G01X31391Y34096D01*
G01X31495Y34201D01*
G01X31546Y34305D01*
G01X31546Y34513D01*
G01X31495Y34617D01*
G01X31391Y34719D01*
G01X31287Y34772D01*
G01X30457Y35219D02*
G01X30457Y35791D01*
G01X30873Y35478D01*
G01X30873Y35633D01*
G01X30924Y35737D01*
G01X30975Y35791D01*
G01X31132Y35841D01*
G01X31236Y35841D01*
G01X31391Y35791D01*
G01X31495Y35687D01*
G01X31546Y35532D01*
G01X31546Y35374D01*
G01X31495Y35219D01*
G01X31445Y35166D01*
G01X31341Y35115D01*
G01X32258Y57795D02*
G01X32258Y56705D01*
G01X32258Y57795D02*
G01X32725Y57795D01*
G01X32880Y57744D01*
G01X32933Y57691D01*
G01X32984Y57586D01*
G01X32984Y57431D01*
G01X32933Y57327D01*
G01X32880Y57277D01*
G01X32725Y57223D01*
G01X32258Y57223D01*
G01X33327Y57586D02*
G01X33431Y57640D01*
G01X33588Y57795D01*
G01X33588Y56705D01*
G01X39728Y6271D02*
G01X40817Y6271D01*
G01X39728Y6997D02*
G01X40454Y6271D01*
G01X40195Y6530D02*
G01X40817Y6997D01*
G01X39728Y7340D02*
G01X40817Y7340D01*
G01X39728Y7340D02*
G01X39728Y8016D01*
G01X40246Y7340D02*
G01X40246Y7757D01*
G01X40817Y7340D02*
G01X40817Y8016D01*
G01X39728Y8359D02*
G01X40246Y8775D01*
G01X40817Y8775D01*
G01X39728Y9192D02*
G01X40246Y8775D01*
G01X34150Y15298D02*
G01X34150Y14208D01*
G01X34544Y15039D02*
G01X34544Y15090D01*
G01X34597Y15194D01*
G01X34648Y15247D01*
G01X34752Y15298D01*
G01X34960Y15298D01*
G01X35064Y15247D01*
G01X35115Y15194D01*
G01X35168Y15090D01*
G01X35168Y14986D01*
G01X35115Y14881D01*
G01X35013Y14726D01*
G01X34493Y14208D01*
G01X35219Y14208D01*
G01X36342Y15039D02*
G01X36291Y15143D01*
G01X36187Y15247D01*
G01X36083Y15298D01*
G01X35874Y15298D01*
G01X35770Y15247D01*
G01X35666Y15143D01*
G01X35615Y15039D01*
G01X35562Y14881D01*
G01X35562Y14622D01*
G01X35615Y14467D01*
G01X35666Y14363D01*
G01X35770Y14259D01*
G01X35874Y14208D01*
G01X36083Y14208D01*
G01X36187Y14259D01*
G01X36291Y14363D01*
G01X36342Y14467D01*
G01X23718Y13012D02*
G01X23718Y11922D01*
G01X23355Y13012D02*
G01X24081Y13012D01*
G01X24424Y13012D02*
G01X25153Y11922D01*
G01X25153Y13012D02*
G01X24424Y11922D01*
G01X26296Y13012D02*
G01X26296Y11922D01*
G01X26296Y13012D02*
G01X26763Y13012D01*
G01X26918Y12961D01*
G01X26972Y12908D01*
G01X27023Y12804D01*
G01X27023Y12700D01*
G01X26972Y12595D01*
G01X26918Y12545D01*
G01X26763Y12494D01*
G01X26296Y12494D01*
G01X26659Y12494D02*
G01X27023Y11922D01*
G01X27365Y13012D02*
G01X28092Y11922D01*
G01X28092Y13012D02*
G01X27365Y11922D01*
G01X8074Y3332D02*
G01X8074Y2397D01*
G01X7607Y2865D02*
G01X8542Y2865D01*
G01X10309Y3487D02*
G01X9789Y3487D01*
G01X9738Y3020D01*
G01X9789Y3070D01*
G01X9944Y3124D01*
G01X10101Y3124D01*
G01X10256Y3070D01*
G01X10360Y2969D01*
G01X10414Y2811D01*
G01X10414Y2707D01*
G01X10360Y2552D01*
G01X10256Y2448D01*
G01X10101Y2397D01*
G01X9944Y2397D01*
G01X9789Y2448D01*
G01X9738Y2499D01*
G01X9685Y2603D01*
G01X10756Y3487D02*
G01X11170Y2397D01*
G01X11587Y3487D02*
G01X11170Y2397D01*
G01X12730Y2865D02*
G01X13665Y2865D01*
G01X15440Y3459D02*
G01X15440Y2524D01*
G01X14973Y2992D02*
G01X15908Y2992D01*
G01X17467Y3614D02*
G01X17051Y2524D01*
G01X17467Y3614D02*
G01X17881Y2524D01*
G01X17208Y2887D02*
G01X17726Y2887D01*
G01X18224Y3614D02*
G01X18224Y2524D01*
G01X18224Y3614D02*
G01X18590Y3614D01*
G01X18745Y3563D01*
G01X18849Y3459D01*
G01X18900Y3355D01*
G01X18953Y3197D01*
G01X18953Y2938D01*
G01X18900Y2783D01*
G01X18849Y2679D01*
G01X18745Y2575D01*
G01X18590Y2524D01*
G01X18224Y2524D01*
G01X20076Y3355D02*
G01X20022Y3459D01*
G01X19918Y3563D01*
G01X19814Y3614D01*
G01X19608Y3614D01*
G01X19504Y3563D01*
G01X19400Y3459D01*
G01X19347Y3355D01*
G01X19296Y3197D01*
G01X19296Y2938D01*
G01X19347Y2783D01*
G01X19400Y2679D01*
G01X19504Y2575D01*
G01X19608Y2524D01*
G01X19814Y2524D01*
G01X19918Y2575D01*
G01X20022Y2679D01*
G01X20076Y2783D01*
G01X21219Y2992D02*
G01X22153Y2992D01*
G54D10*
G75*
G01X36782Y34972D02*
G02X36982Y34772I0J-200D01*
G01*
G75*
G01X35582Y34972D02*
G03X35382Y34772I0J-200D01*
G01*
G75*
G01X36782Y31672D02*
G03X36982Y31872I0J200D01*
G01*
G75*
G01X35582Y31672D02*
G02X35382Y31872I0J200D01*
G01*
G75*
G01X33953Y34499D02*
G03X33953Y34499I-50J0D01*
G01*
G75*
G01X46411Y11527D02*
G03X46411Y11527I-749J0D01*
G01*
G75*
G01X47412Y11527D02*
G03X47412Y11527I-1750J0D01*
G01*
G75*
G01X46411Y4161D02*
G03X46411Y4161I-749J0D01*
G01*
G75*
G01X47412Y4161D02*
G03X47412Y4161I-1750J0D01*
G01*

%LPD*%
G36*
G01X54643Y8595D02*
G01X54443Y8595D01*
G01X54443Y6995D01*
G01X54643Y6995D01*
G01X54643Y8595D01*
G37*

%LPD*%
G36*
G01X54543Y7895D02*
G01X53943Y7895D01*
G01X53943Y7695D01*
G01X54543Y7695D01*
G01X54543Y7895D01*
G37*

%LPD*%
G36*
G01X54643Y14056D02*
G01X54443Y14056D01*
G01X54443Y12456D01*
G01X54643Y12456D01*
G01X54643Y14056D01*
G37*

%LPD*%
G36*
G01X54543Y13356D02*
G01X53943Y13356D01*
G01X53943Y13156D01*
G01X54543Y13156D01*
G01X54543Y13356D01*
G37*

%LPD*%
G36*
G01X54643Y3134D02*
G01X54443Y3134D01*
G01X54443Y1534D01*
G01X54643Y1534D01*
G01X54643Y3134D01*
G37*

%LPD*%
G36*
G01X54543Y2434D02*
G01X53943Y2434D01*
G01X53943Y2234D01*
G01X54543Y2234D01*
G01X54543Y2434D01*
G37*
M00*
M02*
